M48
;Layer_Color=9474304
;FILE_FORMAT=4:4
METRIC,LZ
;TYPE=PLATED
T01F00S00C0.3048
T02F00S00C0.7500
T03F00S00C1.0000
T04F00S00C1.0200
T05F00S00C1.2000
T06F00S00C1.2500
T07F00S00C1.4000
T08F00S00C3.2000
T09F00S00C4.2000
T10F00S00C8.5000
;TYPE=NON_PLATED
T11F00S00C1.0200
T12F00S00C1.4000
T14F00S00C3.3000
T16F00S00C6.8000
%
T01
X00545Y0023
Y00245
X0053086Y0043942
X0057531Y0043307
X0069342Y0018415
X0069469Y0016891
X0067818Y0015367
X007112Y0019685
X0041529Y0023114
X0037338Y00254
X0039116Y0032639
X0034671Y0033528
X00353865Y00374126
X0038989Y0046863
X0046101Y0047371
X0049Y0047
X0051273Y00483265
X00460053Y0039878
X0048895Y0033655
X0038Y0011
X0010033Y0050419
X0008636Y0056007
X0006477
X0004572Y0053213
X00125109Y00549355
X00120242Y00559962
X0012573Y0060833
X00085015Y00596975
X0007239Y0065913
X00070376Y00689256
X0004306Y007187
X0001397Y0067437
X0001016Y0061468
X0003Y00829553
X00346094Y0085493
X00292768Y0066802
X0027686
X0026634Y0058329
X0027178Y0049911
X0028829Y0050038
X0041402Y00523875
X0044Y005
X0044196Y0056642
X004805Y00583855
X0049Y0055
X0042545Y00607695
X0048641Y0070358
X00142Y0054409
X0053594Y00526415
X0113Y0087
X0150622Y0068326
X0152146
X01534893Y006835
X0041656Y0090805
X0039624
X00394716Y00940439
X0033528Y0097663
X0030014Y0106934
X00285115
X0026797
X0019939Y0093726
X00173102Y0125
X00198136Y01287764
X0008128Y013208
X00018913Y01319945
X0019177Y013208
Y01332195
Y01344229
Y01297752
X00243719Y01311539
X002159Y0141224
X002032
Y0142494
X002159
T02
X000646Y00857
Y00879
X001154
Y00857
X002296Y00897
Y00919
Y00941
Y00973
X002804
Y00941
Y00919
Y00897
X001154Y00901
Y00933
X000646
Y00901
T03
X001384Y0024
X0024
X002654
X002654Y0041
X0024
X001384
X00113
X00113Y0024
X005952Y00725
X00773Y007758
X01027
X012048Y00725
X01356Y01003
X01436
X00736
X00656
X00612Y0138
X0078
X01312
X0148
T04
X008723Y00855
X008977
X016881Y007135
Y006835
X0006Y0105
X0003
X0004Y0113
Y0116
Y0119
X0007
Y0116
Y0113
X0007Y01245
X0004
Y01275
X0007
Y01305
X0004
Y01335
Y01365
X0007
Y01335
T05
X0030544Y0016844
X0034544
Y0021844
X0030544
T06
X0063Y0008
X01435Y00075
X0151865Y0038133
X00925Y00275
X0083Y0059
X0100865Y0058133
T07
X01371Y0019
Y0032
Y0045
X01523
Y0032
Y0019
Y0058
X01371
T08
X0005Y0005
X0175
X0005Y0145
X0175
T09
X0035Y0005
X009175
X0165
X0035Y0055
X009175
T10
X015295Y01194
X012625
X008295
X005625
T11
X016979Y007263
X000694Y0102
Y0108
X000302Y011172
X000302Y012322
T12
X017Y0019
Y0032
Y0045
Y0058
T14
X012715Y00076
X0135515Y0038233
X010885Y00274
X00829Y004265
X00631Y002435
X0117215Y0058033
T16
X00696Y013972
X01396
M30
