%TF.GenerationSoftware,Altium Limited,Altium Designer,24.2.2 (26)*%
G04 Layer_Physical_Order=2*
G04 Layer_Color=36540*
%FSLAX45Y45*%
%MOMM*%
%TF.SameCoordinates,E62911D3-7CC7-41A5-B2DD-A777233C8753*%
%TF.FilePolarity,Positive*%
%TF.FileFunction,Copper,L2,Inr,Signal*%
%TF.Part,Single*%
G01*
G75*
%TA.AperFunction,Conductor*%
%ADD52C,0.25400*%
%ADD54C,1.01600*%
%ADD55C,0.76200*%
%TA.AperFunction,ComponentPad*%
%ADD56C,3.30000*%
%ADD57C,3.00000*%
%ADD58C,7.00000*%
%ADD59C,6.00000*%
%ADD60C,1.40000*%
%ADD61C,2.50000*%
%ADD62O,35.00000X4.00000*%
%ADD63C,2.03200*%
%ADD64C,6.80000*%
%ADD65C,16.50000*%
%ADD66C,1.52400*%
%TA.AperFunction,WasherPad*%
%ADD67C,1.00000*%
%TA.AperFunction,ComponentPad*%
%ADD68C,2.00000*%
%ADD69C,1.57000*%
%ADD70R,1.57000X1.57000*%
%ADD71C,1.80000*%
%ADD72R,1.25000X1.25000*%
%ADD73C,1.25000*%
%ADD74R,1.57000X1.57000*%
%ADD75C,1.02000*%
%ADD76C,1.52000*%
%TA.AperFunction,ViaPad*%
%ADD78C,0.63500*%
%ADD79C,1.01600*%
G36*
X2600000Y11350000D02*
X4250000Y9700000D01*
Y9019205D01*
X4212069D01*
X4206808Y9031905D01*
X4219433Y9044530D01*
X4229100Y9067869D01*
Y9093131D01*
X4219433Y9116470D01*
X4201570Y9134333D01*
X4178231Y9144000D01*
X4152969D01*
X4129630Y9134333D01*
X4111767Y9116470D01*
X4102100Y9093131D01*
Y9067869D01*
X4111767Y9044530D01*
X4124392Y9031905D01*
X4119131Y9019205D01*
X4008869D01*
X4003608Y9031905D01*
X4016233Y9044530D01*
X4025900Y9067869D01*
Y9093131D01*
X4016233Y9116470D01*
X3998370Y9134333D01*
X3975031Y9144000D01*
X3949769D01*
X3926430Y9134333D01*
X3908567Y9116470D01*
X3898900Y9093131D01*
Y9067869D01*
X3908567Y9044530D01*
X3921192Y9031905D01*
X3915931Y9019205D01*
X2857551D01*
X2848614Y9028142D01*
X2832046Y9037708D01*
X2813566Y9042660D01*
X2794434D01*
X2775954Y9037708D01*
X2759386Y9028142D01*
X2745858Y9014614D01*
X2736292Y8998046D01*
X2731340Y8979566D01*
Y8960434D01*
X2736292Y8941954D01*
X2745858Y8925386D01*
X2759386Y8911858D01*
X2775954Y8902292D01*
X2794434Y8897340D01*
X2813566D01*
X2832046Y8902292D01*
X2848614Y8911858D01*
X2857551Y8920795D01*
X4250000D01*
Y8598505D01*
X3501535D01*
X3496908Y8603133D01*
X3473569Y8612800D01*
X3448307D01*
X3424968Y8603133D01*
X3407105Y8585270D01*
X3397438Y8561931D01*
Y8536669D01*
X3407105Y8513330D01*
X3424968Y8495467D01*
X3448307Y8485800D01*
X3473569D01*
X3496908Y8495467D01*
X3501535Y8500095D01*
X4250000D01*
Y8350000D01*
X1350000D01*
X950000Y7950000D01*
Y6800000D01*
X1550000Y6200000D01*
Y5350000D01*
X1250000Y5050000D01*
Y4700000D01*
X1500000Y4450000D01*
X1500000Y4000000D01*
X1250000Y3750000D01*
Y2750000D01*
X1500000Y2500000D01*
Y2300000D01*
X1250000Y2050000D01*
Y511255D01*
X860160D01*
Y528345D01*
X851292Y584338D01*
X833774Y638253D01*
X808037Y688765D01*
X774715Y734629D01*
X734629Y774715D01*
X688765Y808037D01*
X638253Y833774D01*
X584338Y851292D01*
X528345Y860160D01*
X471655D01*
X415662Y851292D01*
X361747Y833774D01*
X311235Y808037D01*
X265371Y774715D01*
X225285Y734629D01*
X191963Y688765D01*
X166226Y638253D01*
X148708Y584338D01*
X139840Y528345D01*
Y511255D01*
X61338D01*
Y6106240D01*
X74038Y6111500D01*
X76421Y6109117D01*
X92758Y6102350D01*
X110442D01*
X126779Y6109117D01*
X139283Y6121621D01*
X146050Y6137958D01*
Y6155642D01*
X139283Y6171979D01*
X126779Y6184483D01*
X110442Y6191250D01*
X92758D01*
X76421Y6184483D01*
X74038Y6182100D01*
X61338Y6187360D01*
Y14488745D01*
X139840D01*
Y14471655D01*
X148708Y14415662D01*
X166226Y14361746D01*
X191963Y14311235D01*
X225285Y14265372D01*
X265371Y14225285D01*
X311235Y14191963D01*
X361747Y14166226D01*
X415662Y14148708D01*
X471655Y14139841D01*
X528345D01*
X584338Y14148708D01*
X638253Y14166226D01*
X688765Y14191963D01*
X734629Y14225285D01*
X774715Y14265372D01*
X808037Y14311235D01*
X833774Y14361746D01*
X851292Y14415662D01*
X860160Y14471655D01*
Y14488745D01*
X2600000D01*
Y11350000D01*
D02*
G37*
G36*
X5900000Y1000000D02*
X2550000D01*
Y2050000D01*
X2300000Y2300000D01*
Y2347485D01*
X2312700Y2350888D01*
X2319852Y2338500D01*
X2338500Y2319852D01*
X2361340Y2306666D01*
X2386814Y2299840D01*
X2413186D01*
X2438660Y2306666D01*
X2461500Y2319852D01*
X2480148Y2338500D01*
X2493334Y2361340D01*
X2500160Y2386814D01*
Y2413186D01*
X2493334Y2438660D01*
X2480148Y2461500D01*
X2461500Y2480148D01*
X2438660Y2493334D01*
X2413186Y2500160D01*
X2386814D01*
X2361340Y2493334D01*
X2338500Y2480148D01*
X2319852Y2461500D01*
X2312700Y2449112D01*
X2300000Y2452515D01*
Y2500000D01*
X2550000Y2750000D01*
Y3750000D01*
X2300000Y4000000D01*
X2300000D01*
Y4450000D01*
X2550000Y4700000D01*
Y5050000D01*
X2848278D01*
X2853539Y5037300D01*
X2845217Y5028979D01*
X2838450Y5012642D01*
Y4994958D01*
X2845217Y4978621D01*
X2857721Y4966117D01*
X2874058Y4959350D01*
X2891742D01*
X2908079Y4966117D01*
X2920583Y4978621D01*
X2927350Y4994958D01*
Y5012642D01*
X2920583Y5028979D01*
X2912261Y5037300D01*
X2917522Y5050000D01*
X4200000D01*
Y6059184D01*
X4212700Y6061711D01*
X4216817Y6051771D01*
X4229321Y6039267D01*
X4245658Y6032500D01*
X4263342D01*
X4279679Y6039267D01*
X4292183Y6051771D01*
X4298950Y6068108D01*
Y6085792D01*
X4292183Y6102129D01*
X4279679Y6114633D01*
X4263342Y6121400D01*
X4245658D01*
X4229321Y6114633D01*
X4216817Y6102129D01*
X4212700Y6092189D01*
X4200000Y6094716D01*
Y6300000D01*
X5900000D01*
Y1000000D01*
D02*
G37*
%LPC*%
G36*
X2167842Y14293851D02*
X2150158D01*
X2133821Y14287083D01*
X2121317Y14274579D01*
X2114550Y14258241D01*
Y14240558D01*
X2121317Y14224220D01*
X2133821Y14211717D01*
X2150158Y14204950D01*
X2167842D01*
X2184179Y14211717D01*
X2196683Y14224220D01*
X2203450Y14240558D01*
Y14258241D01*
X2196683Y14274579D01*
X2184179Y14287083D01*
X2167842Y14293851D01*
D02*
G37*
G36*
X2040842D02*
X2023158D01*
X2006821Y14287083D01*
X1994317Y14274579D01*
X1987550Y14258241D01*
Y14240558D01*
X1994317Y14224220D01*
X2006821Y14211717D01*
X2023158Y14204950D01*
X2040842D01*
X2057179Y14211717D01*
X2069683Y14224220D01*
X2076450Y14240558D01*
Y14258241D01*
X2069683Y14274579D01*
X2057179Y14287083D01*
X2040842Y14293851D01*
D02*
G37*
G36*
X2167842Y14166850D02*
X2150158D01*
X2133821Y14160083D01*
X2121317Y14147578D01*
X2114550Y14131242D01*
Y14113557D01*
X2121317Y14097221D01*
X2133821Y14084717D01*
X2150158Y14077950D01*
X2167842D01*
X2184179Y14084717D01*
X2196683Y14097221D01*
X2203450Y14113557D01*
Y14131242D01*
X2196683Y14147578D01*
X2184179Y14160083D01*
X2167842Y14166850D01*
D02*
G37*
G36*
X2040842D02*
X2023158D01*
X2006821Y14160083D01*
X1994317Y14147578D01*
X1987550Y14131242D01*
Y14113557D01*
X1994317Y14097221D01*
X2006821Y14084717D01*
X2023158Y14077950D01*
X2040842D01*
X2057179Y14084717D01*
X2069683Y14097221D01*
X2076450Y14113557D01*
Y14131242D01*
X2069683Y14147578D01*
X2057179Y14160083D01*
X2040842Y14166850D01*
D02*
G37*
G36*
X711343Y13736160D02*
X688657D01*
X666743Y13730289D01*
X647096Y13718945D01*
X631055Y13702904D01*
X619712Y13683257D01*
X613840Y13661343D01*
Y13638657D01*
X619712Y13616743D01*
X631055Y13597096D01*
X647096Y13581055D01*
X666743Y13569711D01*
X688657Y13563840D01*
X711343D01*
X733256Y13569711D01*
X752903Y13581055D01*
X768945Y13597096D01*
X780288Y13616743D01*
X786160Y13638657D01*
Y13661343D01*
X780288Y13683257D01*
X768945Y13702904D01*
X752903Y13718945D01*
X733256Y13730289D01*
X711343Y13736160D01*
D02*
G37*
G36*
X411343D02*
X388657D01*
X366743Y13730289D01*
X347097Y13718945D01*
X331055Y13702904D01*
X319712Y13683257D01*
X313840Y13661343D01*
Y13638657D01*
X319712Y13616743D01*
X331055Y13597096D01*
X347097Y13581055D01*
X366743Y13569711D01*
X388657Y13563840D01*
X411343D01*
X433256Y13569711D01*
X452903Y13581055D01*
X468945Y13597096D01*
X480288Y13616743D01*
X486160Y13638657D01*
Y13661343D01*
X480288Y13683257D01*
X468945Y13702904D01*
X452903Y13718945D01*
X433256Y13730289D01*
X411343Y13736160D01*
D02*
G37*
G36*
X1926542Y13486740D02*
X1908858D01*
X1892521Y13479971D01*
X1880017Y13467468D01*
X1873250Y13451131D01*
Y13433447D01*
X1880017Y13417111D01*
X1892521Y13404607D01*
X1908858Y13397839D01*
X1926542D01*
X1942879Y13404607D01*
X1955383Y13417111D01*
X1962150Y13433447D01*
Y13451131D01*
X1955383Y13467468D01*
X1942879Y13479971D01*
X1926542Y13486740D01*
D02*
G37*
G36*
Y13366400D02*
X1908858D01*
X1892521Y13359633D01*
X1880017Y13347128D01*
X1873250Y13330792D01*
Y13313109D01*
X1880017Y13296771D01*
X1892521Y13284268D01*
X1908858Y13277499D01*
X1926542D01*
X1942879Y13284268D01*
X1955383Y13296771D01*
X1962150Y13313109D01*
Y13330792D01*
X1955383Y13347128D01*
X1942879Y13359633D01*
X1926542Y13366400D01*
D02*
G37*
G36*
X711343Y13436160D02*
X688657D01*
X666743Y13430289D01*
X647096Y13418945D01*
X631055Y13402904D01*
X619712Y13383257D01*
X613840Y13361343D01*
Y13338657D01*
X619712Y13316743D01*
X624862Y13307825D01*
X539793Y13222755D01*
X227592D01*
X226817Y13224626D01*
X214313Y13237131D01*
X197976Y13243896D01*
X180292D01*
X163955Y13237131D01*
X151451Y13224626D01*
X144684Y13208289D01*
Y13190607D01*
X151451Y13174269D01*
X163955Y13161765D01*
X180292Y13154997D01*
X197976D01*
X214313Y13161765D01*
X226817Y13174269D01*
X227592Y13176140D01*
X549447D01*
X558367Y13177914D01*
X565928Y13182967D01*
X657824Y13274863D01*
X666743Y13269711D01*
X688657Y13263840D01*
X711343D01*
X733256Y13269711D01*
X752903Y13281055D01*
X768945Y13297096D01*
X780288Y13316743D01*
X786160Y13338657D01*
Y13361343D01*
X780288Y13383257D01*
X768945Y13402904D01*
X752903Y13418945D01*
X733256Y13430289D01*
X711343Y13436160D01*
D02*
G37*
G36*
X411343D02*
X388657D01*
X366743Y13430289D01*
X347097Y13418945D01*
X331055Y13402904D01*
X319712Y13383257D01*
X313840Y13361343D01*
Y13338657D01*
X319712Y13316743D01*
X331055Y13297096D01*
X347097Y13281055D01*
X366743Y13269711D01*
X388657Y13263840D01*
X411343D01*
X433256Y13269711D01*
X452903Y13281055D01*
X468945Y13297096D01*
X480288Y13316743D01*
X486160Y13338657D01*
Y13361343D01*
X480288Y13383257D01*
X468945Y13402904D01*
X452903Y13418945D01*
X433256Y13430289D01*
X411343Y13436160D01*
D02*
G37*
G36*
X1926542Y13252451D02*
X1908858D01*
X1892521Y13245683D01*
X1880017Y13233179D01*
X1873250Y13216843D01*
Y13199158D01*
X1880017Y13182822D01*
X1892521Y13170317D01*
X1908858Y13163550D01*
X1926542D01*
X1942879Y13170317D01*
X1955383Y13182822D01*
X1962150Y13199158D01*
Y13216843D01*
X1955383Y13233179D01*
X1942879Y13245683D01*
X1926542Y13252451D01*
D02*
G37*
G36*
X821642D02*
X803958D01*
X787621Y13245683D01*
X775117Y13233179D01*
X768350Y13216843D01*
Y13199158D01*
X775117Y13182822D01*
X787621Y13170317D01*
X803958Y13163550D01*
X821642D01*
X837979Y13170317D01*
X850483Y13182822D01*
X857250Y13199158D01*
Y13216843D01*
X850483Y13233179D01*
X837979Y13245683D01*
X821642Y13252451D01*
D02*
G37*
G36*
X2446034Y13159843D02*
X2428351D01*
X2412014Y13153076D01*
X2399510Y13140572D01*
X2392742Y13124236D01*
Y13106551D01*
X2399510Y13090215D01*
X2412014Y13077710D01*
X2428351Y13070943D01*
X2446034D01*
X2462371Y13077710D01*
X2474875Y13090215D01*
X2481642Y13106551D01*
Y13124236D01*
X2474875Y13140572D01*
X2462371Y13153076D01*
X2446034Y13159843D01*
D02*
G37*
G36*
X711343Y13136160D02*
X688657D01*
X666743Y13130289D01*
X647096Y13118945D01*
X631055Y13102904D01*
X619712Y13083257D01*
X613840Y13061343D01*
Y13038657D01*
X619712Y13016743D01*
X631055Y12997096D01*
X647096Y12981055D01*
X666743Y12969711D01*
X688657Y12963840D01*
X711343D01*
X733256Y12969711D01*
X752903Y12981055D01*
X768945Y12997096D01*
X780288Y13016743D01*
X786160Y13038657D01*
Y13061343D01*
X780288Y13083257D01*
X768945Y13102904D01*
X752903Y13118945D01*
X733256Y13130289D01*
X711343Y13136160D01*
D02*
G37*
G36*
X411343D02*
X388657D01*
X366743Y13130289D01*
X347097Y13118945D01*
X331055Y13102904D01*
X319712Y13083257D01*
X313840Y13061343D01*
Y13038657D01*
X319712Y13016743D01*
X331055Y12997096D01*
X347097Y12981055D01*
X366743Y12969711D01*
X388657Y12963840D01*
X411343D01*
X433256Y12969711D01*
X452903Y12981055D01*
X468945Y12997096D01*
X480288Y13016743D01*
X486160Y13038657D01*
Y13061343D01*
X480288Y13083257D01*
X468945Y13102904D01*
X452903Y13118945D01*
X433256Y13130289D01*
X411343Y13136160D01*
D02*
G37*
G36*
X1926542Y13021973D02*
X1908858D01*
X1892521Y13015205D01*
X1880017Y13002701D01*
X1873250Y12986365D01*
Y12968681D01*
X1880017Y12952344D01*
X1892521Y12939841D01*
X1908858Y12933072D01*
X1926542D01*
X1942879Y12939841D01*
X1955383Y12952344D01*
X1962150Y12968681D01*
Y12986365D01*
X1955383Y13002701D01*
X1942879Y13015205D01*
X1926542Y13021973D01*
D02*
G37*
G36*
X1990202Y12922090D02*
X1972518D01*
X1956181Y12915323D01*
X1943677Y12902818D01*
X1936910Y12886482D01*
Y12868797D01*
X1943677Y12852461D01*
X1956181Y12839957D01*
X1972518Y12833189D01*
X1990202D01*
X2006539Y12839957D01*
X2019043Y12852461D01*
X2025810Y12868797D01*
Y12886482D01*
X2019043Y12902818D01*
X2006539Y12915323D01*
X1990202Y12922090D01*
D02*
G37*
G36*
X711343Y12836160D02*
X688657D01*
X666743Y12830289D01*
X647096Y12818945D01*
X631055Y12802904D01*
X619712Y12783256D01*
X613840Y12761343D01*
Y12738657D01*
X619712Y12716743D01*
X631055Y12697097D01*
X647096Y12681055D01*
X666743Y12669712D01*
X688657Y12663840D01*
X711343D01*
X733256Y12669712D01*
X752903Y12681055D01*
X768945Y12697097D01*
X780288Y12716743D01*
X786160Y12738657D01*
Y12761343D01*
X780288Y12783256D01*
X768945Y12802904D01*
X752903Y12818945D01*
X733256Y12830289D01*
X711343Y12836160D01*
D02*
G37*
G36*
X411343D02*
X388657D01*
X366743Y12830289D01*
X347097Y12818945D01*
X331055Y12802904D01*
X319712Y12783256D01*
X313840Y12761343D01*
Y12738657D01*
X319712Y12716743D01*
X331055Y12697097D01*
X347097Y12681055D01*
X366743Y12669712D01*
X388657Y12663840D01*
X411343D01*
X433256Y12669712D01*
X452903Y12681055D01*
X468945Y12697097D01*
X480288Y12716743D01*
X486160Y12738657D01*
Y12761343D01*
X480288Y12783256D01*
X468945Y12802904D01*
X452903Y12818945D01*
X433256Y12830289D01*
X411343Y12836160D01*
D02*
G37*
G36*
X1743646Y12563500D02*
X1718384D01*
X1695045Y12553833D01*
X1677182Y12535970D01*
X1667515Y12512631D01*
Y12487369D01*
X1677182Y12464030D01*
X1695045Y12446167D01*
X1718384Y12436500D01*
X1743646D01*
X1766985Y12446167D01*
X1784848Y12464030D01*
X1794515Y12487369D01*
Y12512631D01*
X1784848Y12535970D01*
X1766985Y12553833D01*
X1743646Y12563500D01*
D02*
G37*
G36*
X411343Y12536160D02*
X388657D01*
X366743Y12530288D01*
X347097Y12518945D01*
X331055Y12502903D01*
X319712Y12483256D01*
X313840Y12461343D01*
Y12438657D01*
X319712Y12416744D01*
X324661Y12408171D01*
X316293Y12397265D01*
X312058Y12398400D01*
X291942D01*
X272511Y12393193D01*
X255089Y12383135D01*
X240865Y12368910D01*
X230807Y12351489D01*
X225600Y12332058D01*
Y12311942D01*
X230807Y12292511D01*
X240865Y12275089D01*
X255089Y12260865D01*
X272511Y12250807D01*
X291942Y12245600D01*
X312058D01*
X331489Y12250807D01*
X348910Y12260865D01*
X363135Y12275089D01*
X373193Y12292511D01*
X378400Y12311942D01*
Y12332058D01*
X373193Y12351489D01*
X370907Y12355448D01*
X379276Y12366354D01*
X388657Y12363840D01*
X411343D01*
X433256Y12369712D01*
X452903Y12381055D01*
X468945Y12397097D01*
X480288Y12416744D01*
X486160Y12438657D01*
Y12461343D01*
X480288Y12483256D01*
X468945Y12502903D01*
X452903Y12518945D01*
X433256Y12530288D01*
X411343Y12536160D01*
D02*
G37*
G36*
X711343D02*
X688657D01*
X666743Y12530288D01*
X647096Y12518945D01*
X631055Y12502903D01*
X619712Y12483256D01*
X613840Y12461343D01*
Y12438657D01*
X619712Y12416744D01*
X631055Y12397097D01*
X647096Y12381055D01*
X666743Y12369712D01*
X688657Y12363840D01*
X711343D01*
X733256Y12369712D01*
X752903Y12381055D01*
X768945Y12397097D01*
X780288Y12416744D01*
X786160Y12438657D01*
Y12461343D01*
X780288Y12483256D01*
X768945Y12502903D01*
X752903Y12518945D01*
X733256Y12530288D01*
X711343Y12536160D01*
D02*
G37*
G36*
X788660Y11988660D02*
X611340D01*
Y11811340D01*
X788660D01*
Y11988660D01*
D02*
G37*
G36*
X411672D02*
X388328D01*
X365779Y11982618D01*
X345561Y11970946D01*
X329054Y11954438D01*
X317382Y11934221D01*
X311340Y11911672D01*
Y11888328D01*
X317382Y11865778D01*
X329054Y11845561D01*
X345561Y11829054D01*
X365779Y11817382D01*
X388328Y11811340D01*
X411672D01*
X434221Y11817382D01*
X454439Y11829054D01*
X470946Y11845561D01*
X482618Y11865778D01*
X488660Y11888328D01*
Y11911672D01*
X482618Y11934221D01*
X470946Y11954438D01*
X454439Y11970946D01*
X434221Y11982618D01*
X411672Y11988660D01*
D02*
G37*
G36*
X711672Y11688660D02*
X688328D01*
X665779Y11682618D01*
X645562Y11670946D01*
X629054Y11654438D01*
X617382Y11634221D01*
X611340Y11611672D01*
Y11588328D01*
X617382Y11565778D01*
X629054Y11545561D01*
X645562Y11529054D01*
X665779Y11517382D01*
X688328Y11511340D01*
X711672D01*
X734222Y11517382D01*
X754439Y11529054D01*
X770946Y11545561D01*
X782618Y11565778D01*
X788660Y11588328D01*
Y11611672D01*
X782618Y11634221D01*
X770946Y11654438D01*
X754439Y11670946D01*
X734222Y11682618D01*
X711672Y11688660D01*
D02*
G37*
G36*
X411672D02*
X388328D01*
X365779Y11682618D01*
X345561Y11670946D01*
X329054Y11654438D01*
X317382Y11634221D01*
X311340Y11611672D01*
Y11588328D01*
X317382Y11565778D01*
X329054Y11545561D01*
X345561Y11529054D01*
X365779Y11517382D01*
X388328Y11511340D01*
X411672D01*
X434221Y11517382D01*
X454439Y11529054D01*
X470946Y11545561D01*
X482618Y11565778D01*
X488660Y11588328D01*
Y11611672D01*
X482618Y11634221D01*
X470946Y11654438D01*
X454439Y11670946D01*
X434221Y11682618D01*
X411672Y11688660D01*
D02*
G37*
G36*
Y11388660D02*
X388328D01*
X365779Y11382618D01*
X345561Y11370946D01*
X329054Y11354439D01*
X317382Y11334221D01*
X311340Y11311672D01*
Y11288328D01*
X317382Y11265779D01*
X321246Y11259086D01*
X312877Y11248180D01*
X312058Y11248400D01*
X291942D01*
X272511Y11243193D01*
X255090Y11233135D01*
X240865Y11218911D01*
X230807Y11201489D01*
X225600Y11182058D01*
Y11161942D01*
X230807Y11142511D01*
X240865Y11125090D01*
X255090Y11110865D01*
X272511Y11100807D01*
X291942Y11095600D01*
X312058D01*
X331489Y11100807D01*
X348911Y11110865D01*
X363135Y11125090D01*
X373193Y11142511D01*
X378400Y11161942D01*
Y11182058D01*
X373193Y11201489D01*
X372676Y11202386D01*
X381044Y11213292D01*
X388328Y11211340D01*
X411672D01*
X434221Y11217382D01*
X454439Y11229054D01*
X470946Y11245561D01*
X482618Y11265779D01*
X488660Y11288328D01*
Y11311672D01*
X482618Y11334221D01*
X470946Y11354439D01*
X454439Y11370946D01*
X434221Y11382618D01*
X411672Y11388660D01*
D02*
G37*
G36*
X711672D02*
X688328D01*
X665779Y11382618D01*
X645562Y11370946D01*
X629054Y11354439D01*
X617382Y11334221D01*
X611340Y11311672D01*
Y11288328D01*
X617382Y11265779D01*
X629054Y11245561D01*
X645562Y11229054D01*
X665779Y11217382D01*
X688328Y11211340D01*
X711672D01*
X734222Y11217382D01*
X754439Y11229054D01*
X770946Y11245561D01*
X782618Y11265779D01*
X788660Y11288328D01*
Y11311672D01*
X782618Y11334221D01*
X770946Y11354439D01*
X754439Y11370946D01*
X734222Y11382618D01*
X711672Y11388660D01*
D02*
G37*
G36*
X705370Y10886359D02*
X682631D01*
X660666Y10880474D01*
X640974Y10869104D01*
X624895Y10853025D01*
X613525Y10833333D01*
X607640Y10811369D01*
Y10788629D01*
X613525Y10766665D01*
X624895Y10746973D01*
X640974Y10730894D01*
X660666Y10719524D01*
X682631Y10713639D01*
X705370D01*
X727334Y10719524D01*
X747026Y10730894D01*
X763105Y10746973D01*
X774475Y10766665D01*
X780360Y10788629D01*
Y10811369D01*
X774475Y10833333D01*
X763105Y10853025D01*
X747026Y10869104D01*
X727334Y10880474D01*
X705370Y10886359D01*
D02*
G37*
G36*
X3014032Y10756900D02*
X2988770D01*
X2965431Y10747233D01*
X2947568Y10729370D01*
X2937901Y10706031D01*
Y10680769D01*
X2947568Y10657430D01*
X2965431Y10639567D01*
X2988770Y10629900D01*
X3014032D01*
X3037371Y10639567D01*
X3055234Y10657430D01*
X3064901Y10680769D01*
Y10706031D01*
X3055234Y10729370D01*
X3037371Y10747233D01*
X3014032Y10756900D01*
D02*
G37*
G36*
X2863781D02*
X2838519D01*
X2815180Y10747233D01*
X2797317Y10729370D01*
X2787650Y10706031D01*
Y10680769D01*
X2797317Y10657430D01*
X2815180Y10639567D01*
X2838519Y10629900D01*
X2863781D01*
X2887120Y10639567D01*
X2904983Y10657430D01*
X2914650Y10680769D01*
Y10706031D01*
X2904983Y10729370D01*
X2887120Y10747233D01*
X2863781Y10756900D01*
D02*
G37*
G36*
X2692331D02*
X2667069D01*
X2643730Y10747233D01*
X2625867Y10729370D01*
X2616200Y10706031D01*
Y10680769D01*
X2625867Y10657430D01*
X2643730Y10639567D01*
X2667069Y10629900D01*
X2692331D01*
X2715670Y10639567D01*
X2733533Y10657430D01*
X2743200Y10680769D01*
Y10706031D01*
X2733533Y10729370D01*
X2715670Y10747233D01*
X2692331Y10756900D01*
D02*
G37*
G36*
X611370Y10586360D02*
X588631D01*
X566666Y10580475D01*
X546974Y10569105D01*
X530895Y10553026D01*
X519525Y10533334D01*
X513640Y10511370D01*
Y10488631D01*
X519525Y10466666D01*
X530895Y10446974D01*
X546974Y10430895D01*
X566666Y10419525D01*
X588631Y10413640D01*
X611370D01*
X633334Y10419525D01*
X653026Y10430895D01*
X669105Y10446974D01*
X680475Y10466666D01*
X686360Y10488631D01*
Y10511370D01*
X680475Y10533334D01*
X669105Y10553026D01*
X653026Y10569105D01*
X633334Y10580475D01*
X611370Y10586360D01*
D02*
G37*
G36*
X311370D02*
X288631D01*
X266666Y10580475D01*
X246974Y10569105D01*
X230895Y10553026D01*
X219525Y10533334D01*
X213640Y10511370D01*
Y10488631D01*
X219525Y10466666D01*
X230895Y10446974D01*
X246974Y10430895D01*
X266666Y10419525D01*
X288631Y10413640D01*
X311370D01*
X333334Y10419525D01*
X353026Y10430895D01*
X369105Y10446974D01*
X380475Y10466666D01*
X386360Y10488631D01*
Y10511370D01*
X380475Y10533334D01*
X369105Y10553026D01*
X353026Y10569105D01*
X333334Y10580475D01*
X311370Y10586360D01*
D02*
G37*
G36*
X705370Y10286360D02*
X682631D01*
X660666Y10280475D01*
X640974Y10269105D01*
X624895Y10253026D01*
X613525Y10233334D01*
X607640Y10211370D01*
Y10188631D01*
X613525Y10166666D01*
X624895Y10146974D01*
X640974Y10130895D01*
X660666Y10119525D01*
X682631Y10113640D01*
X705370D01*
X727334Y10119525D01*
X747026Y10130895D01*
X763105Y10146974D01*
X774475Y10166666D01*
X780360Y10188631D01*
Y10211370D01*
X774475Y10233334D01*
X763105Y10253026D01*
X747026Y10269105D01*
X727334Y10280475D01*
X705370Y10286360D01*
D02*
G37*
G36*
X3365431Y9829800D02*
X3340169D01*
X3316830Y9820133D01*
X3298967Y9802270D01*
X3289300Y9778931D01*
Y9753669D01*
X3298967Y9730330D01*
X3316830Y9712467D01*
X3340169Y9702800D01*
X3365431D01*
X3388770Y9712467D01*
X3406633Y9730330D01*
X3416300Y9753669D01*
Y9778931D01*
X3406633Y9802270D01*
X3388770Y9820133D01*
X3365431Y9829800D01*
D02*
G37*
G36*
X2368660Y9802660D02*
X2223340D01*
Y9657340D01*
X2368660D01*
Y9802660D01*
D02*
G37*
G36*
X3959791Y9467887D02*
X3934529D01*
X3911190Y9458220D01*
X3893327Y9440357D01*
X3883660Y9417018D01*
Y9391756D01*
X3893327Y9368417D01*
X3911190Y9350555D01*
X3934529Y9340887D01*
X3959791D01*
X3983130Y9350555D01*
X4000993Y9368417D01*
X4010660Y9391756D01*
Y9417018D01*
X4000993Y9440357D01*
X3983130Y9458220D01*
X3959791Y9467887D01*
D02*
G37*
G36*
X2813566Y9482660D02*
X2794434D01*
X2775954Y9477708D01*
X2759386Y9468142D01*
X2745858Y9454614D01*
X2736292Y9438046D01*
X2731340Y9419566D01*
Y9400434D01*
X2736292Y9381954D01*
X2745858Y9365386D01*
X2759386Y9351858D01*
X2775954Y9342292D01*
X2794434Y9337340D01*
X2813566D01*
X2832046Y9342292D01*
X2848614Y9351858D01*
X2862142Y9365386D01*
X2871708Y9381954D01*
X2876660Y9400434D01*
Y9419566D01*
X2871708Y9438046D01*
X2862142Y9454614D01*
X2848614Y9468142D01*
X2832046Y9477708D01*
X2813566Y9482660D01*
D02*
G37*
G36*
Y9802660D02*
X2794434D01*
X2775954Y9797708D01*
X2759386Y9788142D01*
X2745858Y9774614D01*
X2736292Y9758046D01*
X2731340Y9739566D01*
Y9726927D01*
X2574378Y9569965D01*
X1508122D01*
X1489292Y9566220D01*
X1473329Y9555553D01*
X1239360Y9321585D01*
X1226660Y9326845D01*
Y9339566D01*
X1221708Y9358046D01*
X1212142Y9374614D01*
X1198614Y9388142D01*
X1182046Y9397708D01*
X1163566Y9402660D01*
X1144434D01*
X1125954Y9397708D01*
X1109386Y9388142D01*
X1095858Y9374614D01*
X1086292Y9358046D01*
X1081340Y9339566D01*
Y9320434D01*
X1086292Y9301954D01*
X1095858Y9285386D01*
X1109386Y9271858D01*
X1125954Y9262292D01*
X1144434Y9257340D01*
X1157154D01*
X1162415Y9244640D01*
X846936Y8929161D01*
X836270Y8913198D01*
X832524Y8894368D01*
Y8826111D01*
X649073Y8642660D01*
X636434D01*
X617954Y8637708D01*
X601386Y8628142D01*
X587858Y8614614D01*
X578292Y8598046D01*
X573340Y8579566D01*
Y8560434D01*
X578292Y8541954D01*
X587858Y8525386D01*
X601386Y8511858D01*
X617954Y8502292D01*
X636434Y8497340D01*
X655566D01*
X674046Y8502292D01*
X690614Y8511858D01*
X704142Y8525386D01*
X713708Y8541954D01*
X718660Y8560434D01*
Y8573073D01*
X916523Y8770936D01*
X927190Y8786899D01*
X930935Y8805730D01*
Y8873986D01*
X1068640Y9011691D01*
X1081340Y9006431D01*
Y9000434D01*
X1086292Y8981954D01*
X1095858Y8965385D01*
X1109386Y8951857D01*
X1125954Y8942291D01*
X1144434Y8937340D01*
X1163566D01*
X1182046Y8942291D01*
X1198614Y8951857D01*
X1212142Y8965385D01*
X1221708Y8981954D01*
X1226660Y9000434D01*
Y9019566D01*
X1221708Y9038045D01*
X1212142Y9054614D01*
X1198614Y9068142D01*
X1182046Y9077708D01*
X1163566Y9082660D01*
X1157569D01*
X1152309Y9095360D01*
X1528503Y9471555D01*
X2236837D01*
X2242098Y9458855D01*
X2237858Y9454614D01*
X2228292Y9438046D01*
X2223340Y9419566D01*
Y9400434D01*
X2228292Y9381954D01*
X2237858Y9365386D01*
X2251386Y9351858D01*
X2267954Y9342292D01*
X2286434Y9337340D01*
X2305566D01*
X2324046Y9342292D01*
X2340614Y9351858D01*
X2354142Y9365386D01*
X2363708Y9381954D01*
X2368660Y9400434D01*
Y9419566D01*
X2363708Y9438046D01*
X2354142Y9454614D01*
X2349902Y9458855D01*
X2355163Y9471555D01*
X2594760D01*
X2613590Y9475300D01*
X2629553Y9485967D01*
X2800927Y9657340D01*
X2813566D01*
X2832046Y9662292D01*
X2848614Y9671858D01*
X2862142Y9685386D01*
X2871708Y9701954D01*
X2876660Y9720434D01*
Y9739566D01*
X2871708Y9758046D01*
X2862142Y9774614D01*
X2848614Y9788142D01*
X2832046Y9797708D01*
X2813566Y9802660D01*
D02*
G37*
G36*
X2002742Y9417050D02*
X1985058D01*
X1968721Y9410283D01*
X1956217Y9397779D01*
X1949450Y9381442D01*
Y9363758D01*
X1956217Y9347421D01*
X1968721Y9334917D01*
X1985058Y9328150D01*
X2002742D01*
X2019079Y9334917D01*
X2031583Y9347421D01*
X2038350Y9363758D01*
Y9381442D01*
X2031583Y9397779D01*
X2019079Y9410283D01*
X2002742Y9417050D01*
D02*
G37*
G36*
X718660Y9402660D02*
X573340D01*
Y9257340D01*
X718660D01*
Y9402660D01*
D02*
G37*
G36*
X2813566Y9262660D02*
X2794434D01*
X2775954Y9257708D01*
X2759386Y9248143D01*
X2745858Y9234614D01*
X2736292Y9218046D01*
X2731340Y9199566D01*
Y9180434D01*
X2736292Y9161954D01*
X2745858Y9145386D01*
X2759386Y9131858D01*
X2775954Y9122292D01*
X2794434Y9117340D01*
X2813566D01*
X2832046Y9122292D01*
X2848614Y9131858D01*
X2862142Y9145386D01*
X2871708Y9161954D01*
X2876660Y9180434D01*
Y9199566D01*
X2871708Y9218046D01*
X2862142Y9234614D01*
X2848614Y9248143D01*
X2832046Y9257708D01*
X2813566Y9262660D01*
D02*
G37*
G36*
X2305566D02*
X2286434D01*
X2267954Y9257708D01*
X2251386Y9248143D01*
X2237858Y9234614D01*
X2228292Y9218046D01*
X2223340Y9199566D01*
Y9180434D01*
X2228292Y9161954D01*
X2237858Y9145386D01*
X2251386Y9131858D01*
X2267954Y9122292D01*
X2286434Y9117340D01*
X2305566D01*
X2324046Y9122292D01*
X2340614Y9131858D01*
X2354142Y9145386D01*
X2363708Y9161954D01*
X2368660Y9180434D01*
Y9199566D01*
X2363708Y9218046D01*
X2354142Y9234614D01*
X2340614Y9248143D01*
X2324046Y9257708D01*
X2305566Y9262660D01*
D02*
G37*
G36*
X655566Y9082660D02*
X636434D01*
X617954Y9077708D01*
X601386Y9068142D01*
X587858Y9054614D01*
X578292Y9038045D01*
X573340Y9019566D01*
Y9000434D01*
X578292Y8981954D01*
X587858Y8965385D01*
X601386Y8951857D01*
X617954Y8942291D01*
X636434Y8937340D01*
X655566D01*
X674046Y8942291D01*
X690614Y8951857D01*
X704142Y8965385D01*
X713708Y8981954D01*
X718660Y9000434D01*
Y9019566D01*
X713708Y9038045D01*
X704142Y9054614D01*
X690614Y9068142D01*
X674046Y9077708D01*
X655566Y9082660D01*
D02*
G37*
G36*
X2305566Y9042660D02*
X2286434D01*
X2267954Y9037708D01*
X2251386Y9028142D01*
X2237858Y9014614D01*
X2228292Y8998046D01*
X2223340Y8979566D01*
Y8960434D01*
X2228292Y8941954D01*
X2237858Y8925386D01*
X2251386Y8911858D01*
X2267954Y8902292D01*
X2286434Y8897340D01*
X2305566D01*
X2324046Y8902292D01*
X2340614Y8911858D01*
X2354142Y8925386D01*
X2363708Y8941954D01*
X2368660Y8960434D01*
Y8979566D01*
X2363708Y8998046D01*
X2354142Y9014614D01*
X2340614Y9028142D01*
X2324046Y9037708D01*
X2305566Y9042660D01*
D02*
G37*
G36*
X1163566Y8862660D02*
X1144434D01*
X1125954Y8857708D01*
X1109386Y8848142D01*
X1095858Y8834614D01*
X1086292Y8818046D01*
X1081340Y8799566D01*
Y8780434D01*
X1086292Y8761954D01*
X1095858Y8745386D01*
X1109386Y8731858D01*
X1125954Y8722292D01*
X1144434Y8717340D01*
X1163566D01*
X1182046Y8722292D01*
X1198614Y8731858D01*
X1212142Y8745386D01*
X1221708Y8761954D01*
X1226660Y8780434D01*
Y8799566D01*
X1221708Y8818046D01*
X1212142Y8834614D01*
X1198614Y8848142D01*
X1182046Y8857708D01*
X1163566Y8862660D01*
D02*
G37*
G36*
X655566D02*
X636434D01*
X617954Y8857708D01*
X601386Y8848142D01*
X587858Y8834614D01*
X578292Y8818046D01*
X573340Y8799566D01*
Y8780434D01*
X578292Y8761954D01*
X587858Y8745386D01*
X601386Y8731858D01*
X617954Y8722292D01*
X636434Y8717340D01*
X655566D01*
X674046Y8722292D01*
X690614Y8731858D01*
X704142Y8745386D01*
X713708Y8761954D01*
X718660Y8780434D01*
Y8799566D01*
X713708Y8818046D01*
X704142Y8834614D01*
X690614Y8848142D01*
X674046Y8857708D01*
X655566Y8862660D01*
D02*
G37*
G36*
X1163566Y8642660D02*
X1144434D01*
X1125954Y8637708D01*
X1109386Y8628142D01*
X1095858Y8614614D01*
X1086292Y8598046D01*
X1081340Y8579566D01*
Y8560434D01*
X1086292Y8541954D01*
X1095858Y8525386D01*
X1109386Y8511858D01*
X1125954Y8502292D01*
X1144434Y8497340D01*
X1163566D01*
X1182046Y8502292D01*
X1198614Y8511858D01*
X1212142Y8525386D01*
X1221708Y8541954D01*
X1226660Y8560434D01*
Y8579566D01*
X1221708Y8598046D01*
X1212142Y8614614D01*
X1198614Y8628142D01*
X1182046Y8637708D01*
X1163566Y8642660D01*
D02*
G37*
G36*
X312631Y8359034D02*
X287369D01*
X264030Y8349367D01*
X246167Y8331504D01*
X236500Y8308165D01*
Y8282903D01*
X246167Y8259564D01*
X264030Y8241702D01*
X287369Y8232034D01*
X312631D01*
X335970Y8241702D01*
X353833Y8259564D01*
X363500Y8282903D01*
Y8308165D01*
X353833Y8331504D01*
X335970Y8349367D01*
X312631Y8359034D01*
D02*
G37*
G36*
X439442Y7231450D02*
X421758D01*
X405421Y7224683D01*
X392917Y7212179D01*
X386150Y7195842D01*
Y7178158D01*
X392917Y7161821D01*
X405421Y7149317D01*
X421758Y7142550D01*
X439442D01*
X455779Y7149317D01*
X468283Y7161821D01*
X475050Y7178158D01*
Y7195842D01*
X468283Y7212179D01*
X455779Y7224683D01*
X439442Y7231450D01*
D02*
G37*
G36*
X712602Y6937011D02*
X694919D01*
X678582Y6930243D01*
X666078Y6917739D01*
X659311Y6901402D01*
Y6883719D01*
X666078Y6867382D01*
X678582Y6854878D01*
X694919Y6848111D01*
X712602D01*
X728939Y6854878D01*
X741443Y6867382D01*
X748211Y6883719D01*
Y6901402D01*
X741443Y6917739D01*
X728939Y6930243D01*
X712602Y6937011D01*
D02*
G37*
G36*
X732742Y6635750D02*
X715058D01*
X698721Y6628983D01*
X686217Y6616479D01*
X679450Y6600142D01*
Y6582458D01*
X686217Y6566121D01*
X698721Y6553617D01*
X715058Y6546850D01*
X732742D01*
X749079Y6553617D01*
X761583Y6566121D01*
X768350Y6582458D01*
Y6600142D01*
X761583Y6616479D01*
X749079Y6628983D01*
X732742Y6635750D01*
D02*
G37*
G36*
X1266142Y6127750D02*
X1248458D01*
X1232121Y6120983D01*
X1219617Y6108479D01*
X1212850Y6092142D01*
Y6074458D01*
X1219617Y6058121D01*
X1232121Y6045617D01*
X1248458Y6038850D01*
X1266142D01*
X1282479Y6045617D01*
X1294983Y6058121D01*
X1301750Y6074458D01*
Y6092142D01*
X1294983Y6108479D01*
X1282479Y6120983D01*
X1266142Y6127750D01*
D02*
G37*
G36*
X858992Y6014200D02*
X841308D01*
X824971Y6007433D01*
X812467Y5994929D01*
X805700Y5978592D01*
Y5960908D01*
X812467Y5944571D01*
X824971Y5932067D01*
X841308Y5925300D01*
X858992D01*
X875329Y5932067D01*
X887833Y5944571D01*
X894600Y5960908D01*
Y5978592D01*
X887833Y5994929D01*
X875329Y6007433D01*
X858992Y6014200D01*
D02*
G37*
G36*
X872442Y5645150D02*
X854758D01*
X838421Y5638383D01*
X825917Y5625879D01*
X819150Y5609542D01*
Y5591858D01*
X825917Y5575521D01*
X838421Y5563017D01*
X854758Y5556250D01*
X872442D01*
X888779Y5563017D01*
X901283Y5575521D01*
X908050Y5591858D01*
Y5609542D01*
X901283Y5625879D01*
X888779Y5638383D01*
X872442Y5645150D01*
D02*
G37*
G36*
X656542D02*
X638858D01*
X622521Y5638383D01*
X610017Y5625879D01*
X603250Y5609542D01*
Y5591858D01*
X610017Y5575521D01*
X622521Y5563017D01*
X638858Y5556250D01*
X656542D01*
X672879Y5563017D01*
X685383Y5575521D01*
X692150Y5591858D01*
Y5609542D01*
X685383Y5625879D01*
X672879Y5638383D01*
X656542Y5645150D01*
D02*
G37*
G36*
X1211266Y5644074D02*
X1193583D01*
X1177246Y5637307D01*
X1164742Y5624803D01*
X1157974Y5608466D01*
Y5590783D01*
X1164742Y5574446D01*
X1177246Y5561942D01*
X1193583Y5555174D01*
X1211266D01*
X1227603Y5561942D01*
X1240107Y5574446D01*
X1246874Y5590783D01*
Y5608466D01*
X1240107Y5624803D01*
X1227603Y5637307D01*
X1211266Y5644074D01*
D02*
G37*
G36*
X1259929Y5537998D02*
X1242245D01*
X1225908Y5531231D01*
X1213404Y5518727D01*
X1206637Y5502390D01*
Y5484707D01*
X1213404Y5468370D01*
X1225908Y5455866D01*
X1242245Y5449098D01*
X1259929D01*
X1276266Y5455866D01*
X1288770Y5468370D01*
X1295537Y5484707D01*
Y5502390D01*
X1288770Y5518727D01*
X1276266Y5531231D01*
X1259929Y5537998D01*
D02*
G37*
G36*
X466042Y5365750D02*
X448358D01*
X432021Y5358983D01*
X419517Y5346479D01*
X412750Y5330142D01*
Y5312458D01*
X419517Y5296121D01*
X432021Y5283617D01*
X448358Y5276850D01*
X466042D01*
X482379Y5283617D01*
X494883Y5296121D01*
X501650Y5312458D01*
Y5330142D01*
X494883Y5346479D01*
X482379Y5358983D01*
X466042Y5365750D01*
D02*
G37*
G36*
X1012142Y5086350D02*
X994458D01*
X978121Y5079583D01*
X965617Y5067079D01*
X958850Y5050742D01*
Y5033058D01*
X965617Y5016721D01*
X978121Y5004217D01*
X994458Y4997450D01*
X1012142D01*
X1028479Y5004217D01*
X1040983Y5016721D01*
X1047750Y5033058D01*
Y5050742D01*
X1040983Y5067079D01*
X1028479Y5079583D01*
X1012142Y5086350D01*
D02*
G37*
G36*
X1397187Y4200159D02*
X1370814D01*
X1345340Y4193334D01*
X1322501Y4180148D01*
X1303852Y4161499D01*
X1290666Y4138660D01*
X1283840Y4113186D01*
Y4086813D01*
X1290666Y4061339D01*
X1303852Y4038500D01*
X1322501Y4019852D01*
X1345340Y4006666D01*
X1370814Y3999840D01*
X1397187D01*
X1422661Y4006666D01*
X1445500Y4019852D01*
X1464148Y4038500D01*
X1477334Y4061339D01*
X1484160Y4086813D01*
Y4113186D01*
X1477334Y4138660D01*
X1464148Y4161499D01*
X1445500Y4180148D01*
X1422661Y4193334D01*
X1397187Y4200159D01*
D02*
G37*
G36*
X1143187D02*
X1116814D01*
X1091340Y4193334D01*
X1068501Y4180148D01*
X1049852Y4161499D01*
X1036666Y4138660D01*
X1029840Y4113186D01*
Y4086813D01*
X1036666Y4061339D01*
X1049852Y4038500D01*
X1068501Y4019852D01*
X1091340Y4006666D01*
X1116814Y3999840D01*
X1143187D01*
X1168661Y4006666D01*
X1191500Y4019852D01*
X1210148Y4038500D01*
X1223334Y4061339D01*
X1230160Y4086813D01*
Y4113186D01*
X1223334Y4138660D01*
X1210148Y4161499D01*
X1191500Y4180148D01*
X1168661Y4193334D01*
X1143187Y4200159D01*
D02*
G37*
G36*
X1397186Y2500160D02*
X1370814D01*
X1345340Y2493334D01*
X1322500Y2480148D01*
X1303852Y2461500D01*
X1290666Y2438660D01*
X1283840Y2413186D01*
Y2386814D01*
X1290666Y2361340D01*
X1303852Y2338500D01*
X1322500Y2319852D01*
X1345340Y2306666D01*
X1370814Y2299840D01*
X1397186D01*
X1422660Y2306666D01*
X1445500Y2319852D01*
X1464148Y2338500D01*
X1477334Y2361340D01*
X1484160Y2386814D01*
Y2413186D01*
X1477334Y2438660D01*
X1464148Y2461500D01*
X1445500Y2480148D01*
X1422660Y2493334D01*
X1397186Y2500160D01*
D02*
G37*
G36*
X1143186D02*
X1116814D01*
X1091340Y2493334D01*
X1068500Y2480148D01*
X1049852Y2461500D01*
X1036666Y2438660D01*
X1029840Y2413186D01*
Y2386814D01*
X1036666Y2361340D01*
X1049852Y2338500D01*
X1068500Y2319852D01*
X1091340Y2306666D01*
X1116814Y2299840D01*
X1143186D01*
X1168660Y2306666D01*
X1191500Y2319852D01*
X1210148Y2338500D01*
X1223334Y2361340D01*
X1230160Y2386814D01*
Y2413186D01*
X1223334Y2438660D01*
X1210148Y2461500D01*
X1191500Y2480148D01*
X1168660Y2493334D01*
X1143186Y2500160D01*
D02*
G37*
G36*
X4813842Y5883000D02*
X4796158D01*
X4779821Y5876233D01*
X4767317Y5863729D01*
X4760550Y5847392D01*
Y5829708D01*
X4767317Y5813371D01*
X4779821Y5800867D01*
X4796158Y5794100D01*
X4813842D01*
X4830179Y5800867D01*
X4842683Y5813371D01*
X4849450Y5829708D01*
Y5847392D01*
X4842683Y5863729D01*
X4830179Y5876233D01*
X4813842Y5883000D01*
D02*
G37*
G36*
X5368242Y5308600D02*
X5350558D01*
X5334221Y5301833D01*
X5321717Y5289329D01*
X5314950Y5272992D01*
Y5255308D01*
X5321717Y5238971D01*
X5334221Y5226467D01*
X5350558Y5219700D01*
X5368242D01*
X5384579Y5226467D01*
X5397083Y5238971D01*
X5403850Y5255308D01*
Y5272992D01*
X5397083Y5289329D01*
X5384579Y5301833D01*
X5368242Y5308600D01*
D02*
G37*
G36*
X5136142Y4877099D02*
X5118458D01*
X5102121Y4870331D01*
X5089617Y4857827D01*
X5082850Y4841490D01*
Y4823807D01*
X5089617Y4807470D01*
X5102121Y4794966D01*
X5118458Y4788199D01*
X5136142D01*
X5152479Y4794966D01*
X5164983Y4807470D01*
X5171750Y4823807D01*
Y4841490D01*
X5164983Y4857827D01*
X5152479Y4870331D01*
X5136142Y4877099D01*
D02*
G37*
G36*
X4618942Y4781550D02*
X4601258D01*
X4584921Y4774783D01*
X4572417Y4762279D01*
X4565650Y4745942D01*
Y4728258D01*
X4572417Y4711921D01*
X4584921Y4699417D01*
X4601258Y4692650D01*
X4618942D01*
X4635279Y4699417D01*
X4647783Y4711921D01*
X4654550Y4728258D01*
Y4745942D01*
X4647783Y4762279D01*
X4635279Y4774783D01*
X4618942Y4781550D01*
D02*
G37*
G36*
X5317442Y4438650D02*
X5299758D01*
X5283421Y4431883D01*
X5270917Y4419379D01*
X5264150Y4403042D01*
Y4385358D01*
X5270917Y4369021D01*
X5283421Y4356517D01*
X5299758Y4349750D01*
X5317442D01*
X5333779Y4356517D01*
X5346283Y4369021D01*
X5353050Y4385358D01*
Y4403042D01*
X5346283Y4419379D01*
X5333779Y4431883D01*
X5317442Y4438650D01*
D02*
G37*
G36*
X5761942Y4375150D02*
X5744258D01*
X5727921Y4368383D01*
X5715417Y4355879D01*
X5708650Y4339542D01*
Y4321858D01*
X5715417Y4305521D01*
X5727921Y4293017D01*
X5744258Y4286250D01*
X5761942D01*
X5778279Y4293017D01*
X5790783Y4305521D01*
X5797550Y4321858D01*
Y4339542D01*
X5790783Y4355879D01*
X5778279Y4368383D01*
X5761942Y4375150D01*
D02*
G37*
G36*
X2667187Y4200159D02*
X2640814D01*
X2615340Y4193334D01*
X2592501Y4180148D01*
X2573852Y4161499D01*
X2560666Y4138660D01*
X2553840Y4113186D01*
Y4086813D01*
X2560666Y4061339D01*
X2573852Y4038500D01*
X2592501Y4019852D01*
X2615340Y4006666D01*
X2640814Y3999840D01*
X2667187D01*
X2692661Y4006666D01*
X2715500Y4019852D01*
X2734148Y4038500D01*
X2747334Y4061339D01*
X2754160Y4086813D01*
Y4113186D01*
X2747334Y4138660D01*
X2734148Y4161499D01*
X2715500Y4180148D01*
X2692661Y4193334D01*
X2667187Y4200159D01*
D02*
G37*
G36*
X3551285Y3804764D02*
X3526023D01*
X3502684Y3795096D01*
X3484821Y3777233D01*
X3475154Y3753894D01*
Y3728633D01*
X3484821Y3705294D01*
X3502684Y3687431D01*
X3526023Y3677764D01*
X3551285D01*
X3574624Y3687431D01*
X3592487Y3705294D01*
X3602154Y3728633D01*
Y3753894D01*
X3592487Y3777233D01*
X3574624Y3795096D01*
X3551285Y3804764D01*
D02*
G37*
G36*
X4898342Y3409950D02*
X4880658D01*
X4864321Y3403183D01*
X4851817Y3390679D01*
X4845050Y3374342D01*
Y3356658D01*
X4851817Y3340321D01*
X4864321Y3327817D01*
X4880658Y3321050D01*
X4898342D01*
X4914679Y3327817D01*
X4927183Y3340321D01*
X4933950Y3356658D01*
Y3374342D01*
X4927183Y3390679D01*
X4914679Y3403183D01*
X4898342Y3409950D01*
D02*
G37*
G36*
X3479731Y3416300D02*
X3454469D01*
X3431130Y3406633D01*
X3413267Y3388770D01*
X3403600Y3365431D01*
Y3340169D01*
X3413267Y3316830D01*
X3431130Y3298967D01*
X3454469Y3289300D01*
X3479731D01*
X3503070Y3298967D01*
X3520933Y3316830D01*
X3530600Y3340169D01*
Y3365431D01*
X3520933Y3388770D01*
X3503070Y3406633D01*
X3479731Y3416300D01*
D02*
G37*
G36*
X3924231Y3327400D02*
X3898969D01*
X3875630Y3317733D01*
X3857767Y3299870D01*
X3848100Y3276531D01*
Y3251269D01*
X3857767Y3227930D01*
X3875630Y3210067D01*
X3898969Y3200400D01*
X3924231D01*
X3947570Y3210067D01*
X3965433Y3227930D01*
X3975100Y3251269D01*
Y3276531D01*
X3965433Y3299870D01*
X3947570Y3317733D01*
X3924231Y3327400D01*
D02*
G37*
G36*
X3746431Y2603500D02*
X3721169D01*
X3697830Y2593833D01*
X3679967Y2575970D01*
X3670300Y2552631D01*
Y2527369D01*
X3679967Y2504030D01*
X3697830Y2486167D01*
X3721169Y2476500D01*
X3746431D01*
X3769770Y2486167D01*
X3787633Y2504030D01*
X3797300Y2527369D01*
Y2552631D01*
X3787633Y2575970D01*
X3769770Y2593833D01*
X3746431Y2603500D01*
D02*
G37*
G36*
X5462631Y2513500D02*
X5437369D01*
X5414030Y2503833D01*
X5396167Y2485970D01*
X5386500Y2462631D01*
Y2437369D01*
X5396167Y2414030D01*
X5414030Y2396167D01*
X5437369Y2386500D01*
X5462631D01*
X5485970Y2396167D01*
X5503833Y2414030D01*
X5513500Y2437369D01*
Y2462631D01*
X5503833Y2485970D01*
X5485970Y2503833D01*
X5462631Y2513500D01*
D02*
G37*
G36*
X2667186Y2500160D02*
X2640814D01*
X2615340Y2493334D01*
X2592500Y2480148D01*
X2573852Y2461500D01*
X2560666Y2438660D01*
X2553840Y2413186D01*
Y2386814D01*
X2560666Y2361340D01*
X2573852Y2338500D01*
X2592500Y2319852D01*
X2615340Y2306666D01*
X2640814Y2299840D01*
X2667186D01*
X2692660Y2306666D01*
X2715500Y2319852D01*
X2734148Y2338500D01*
X2747334Y2361340D01*
X2754160Y2386814D01*
Y2413186D01*
X2747334Y2438660D01*
X2734148Y2461500D01*
X2715500Y2480148D01*
X2692660Y2493334D01*
X2667186Y2500160D01*
D02*
G37*
G36*
X4161742Y2355850D02*
X4144058D01*
X4127721Y2349083D01*
X4115217Y2336579D01*
X4108450Y2320242D01*
Y2302558D01*
X4115217Y2286221D01*
X4127721Y2273717D01*
X4144058Y2266950D01*
X4161742D01*
X4178079Y2273717D01*
X4190583Y2286221D01*
X4197350Y2302558D01*
Y2320242D01*
X4190583Y2336579D01*
X4178079Y2349083D01*
X4161742Y2355850D01*
D02*
G37*
G36*
X5462631Y2363500D02*
X5437369D01*
X5414030Y2353833D01*
X5396167Y2335970D01*
X5386500Y2312631D01*
Y2287369D01*
X5396167Y2264030D01*
X5414030Y2246167D01*
X5437369Y2236500D01*
X5462631D01*
X5485970Y2246167D01*
X5503833Y2264030D01*
X5513500Y2287369D01*
Y2312631D01*
X5503833Y2335970D01*
X5485970Y2353833D01*
X5462631Y2363500D01*
D02*
G37*
G36*
X3468903Y2294560D02*
X3439897D01*
X3411880Y2287053D01*
X3386760Y2272550D01*
X3366250Y2252040D01*
X3351747Y2226920D01*
X3344240Y2198903D01*
Y2169897D01*
X3351747Y2141880D01*
X3366250Y2116760D01*
X3386760Y2096250D01*
X3411880Y2081747D01*
X3439897Y2074240D01*
X3468903D01*
X3496920Y2081747D01*
X3522040Y2096250D01*
X3542550Y2116760D01*
X3557053Y2141880D01*
X3564560Y2169897D01*
Y2198903D01*
X3557053Y2226920D01*
X3542550Y2252040D01*
X3522040Y2272550D01*
X3496920Y2287053D01*
X3468903Y2294560D01*
D02*
G37*
G36*
X3068903D02*
X3039897D01*
X3011880Y2287053D01*
X2986760Y2272550D01*
X2966250Y2252040D01*
X2951747Y2226920D01*
X2944240Y2198903D01*
Y2169897D01*
X2951747Y2141880D01*
X2966250Y2116760D01*
X2986760Y2096250D01*
X3011880Y2081747D01*
X3039897Y2074240D01*
X3068903D01*
X3096920Y2081747D01*
X3122040Y2096250D01*
X3142550Y2116760D01*
X3157053Y2141880D01*
X3164560Y2169897D01*
Y2198903D01*
X3157053Y2226920D01*
X3142550Y2252040D01*
X3122040Y2272550D01*
X3096920Y2287053D01*
X3068903Y2294560D01*
D02*
G37*
G36*
X3468903Y1794560D02*
X3439897D01*
X3411880Y1787053D01*
X3386760Y1772550D01*
X3366250Y1752040D01*
X3351747Y1726920D01*
X3344240Y1698903D01*
Y1669897D01*
X3351747Y1641880D01*
X3366250Y1616760D01*
X3386760Y1596250D01*
X3411880Y1581747D01*
X3439897Y1574240D01*
X3468903D01*
X3496920Y1581747D01*
X3522040Y1596250D01*
X3542550Y1616760D01*
X3557053Y1641880D01*
X3564560Y1669897D01*
Y1698903D01*
X3557053Y1726920D01*
X3542550Y1752040D01*
X3522040Y1772550D01*
X3496920Y1787053D01*
X3468903Y1794560D01*
D02*
G37*
G36*
X3068903D02*
X3039897D01*
X3011880Y1787053D01*
X2986760Y1772550D01*
X2966250Y1752040D01*
X2951747Y1726920D01*
X2944240Y1698903D01*
Y1669897D01*
X2951747Y1641880D01*
X2966250Y1616760D01*
X2986760Y1596250D01*
X3011880Y1581747D01*
X3039897Y1574240D01*
X3068903D01*
X3096920Y1581747D01*
X3122040Y1596250D01*
X3142550Y1616760D01*
X3157053Y1641880D01*
X3164560Y1669897D01*
Y1698903D01*
X3157053Y1726920D01*
X3142550Y1752040D01*
X3122040Y1772550D01*
X3096920Y1787053D01*
X3068903Y1794560D01*
D02*
G37*
G36*
X3812631Y1163500D02*
X3787369D01*
X3764030Y1153833D01*
X3746167Y1135970D01*
X3736500Y1112631D01*
Y1087369D01*
X3746167Y1064030D01*
X3764030Y1046167D01*
X3787369Y1036500D01*
X3812631D01*
X3835970Y1046167D01*
X3853833Y1064030D01*
X3863500Y1087369D01*
Y1112631D01*
X3853833Y1135970D01*
X3835970Y1153833D01*
X3812631Y1163500D01*
D02*
G37*
%LPD*%
D52*
X189134Y13199448D02*
X549447D01*
X700000Y13350000D01*
D54*
X8229600Y5969000D02*
X8369000D01*
X12852400Y3505200D02*
X14563300D01*
X11518900Y4838700D02*
X12852400Y3505200D01*
X14563300D02*
X14871400Y3813300D01*
X8242300Y4838700D02*
X11518900D01*
X14871400Y3813300D02*
X15186501D01*
X6045200Y7035800D02*
X8242300Y4838700D01*
X4864100Y7035800D02*
X6045200D01*
X14222800Y6807200D02*
X15230000Y5800000D01*
X12048000Y7052800D02*
Y7250000D01*
Y7052800D02*
X12293600Y6807200D01*
X14222800D01*
X12275387Y6197600D02*
X13972987Y4500000D01*
X8597600Y6197600D02*
X12275387D01*
X8369000Y5969000D02*
X8597600Y6197600D01*
X13972987Y4500000D02*
X15230000D01*
X16332201Y7137400D02*
X16878600D01*
X16881000Y7135000D01*
X15748000Y6172200D02*
Y6553200D01*
X16332201Y7137400D01*
X15748000Y6172200D02*
X15773399Y6146800D01*
Y1532716D02*
Y6146800D01*
X14136800Y1473200D02*
X15713884D01*
X15773399Y1532716D01*
X13710001Y1900000D02*
X14136800Y1473200D01*
X15797099Y7250000D02*
X17145000Y8597900D01*
X16078200Y13157201D02*
X17145000Y12090400D01*
Y8597900D02*
Y12090400D01*
X8560726Y12205726D02*
Y12853326D01*
X8864600Y13157201D02*
X16078200D01*
X8560726Y12853326D02*
X8864600Y13157201D01*
X8295000Y11940000D02*
X8560726Y12205726D01*
X12048000Y7250000D02*
X15797099D01*
D55*
X13282950Y9752950D02*
X13560001Y10030000D01*
X13282950Y9676150D02*
Y9752950D01*
X13030200Y9423400D02*
X13282950Y9676150D01*
X8168300Y8549300D02*
X9042400Y9423400D01*
X13030200D01*
X3460938Y8549300D02*
X8168300D01*
X5500000Y8970000D02*
X6560000Y10030000D01*
X2804000Y8970000D02*
X5500000D01*
X2594760Y9520760D02*
X2804000Y9730000D01*
X1508122Y9520760D02*
X2594760D01*
X881730Y8894368D02*
X1508122Y9520760D01*
X881730Y8805730D02*
Y8894368D01*
X646000Y8570000D02*
X881730Y8805730D01*
D56*
X11721500Y5803300D02*
D03*
X13551500Y3823300D02*
D03*
X12715000Y760000D02*
D03*
X10885000Y2740000D02*
D03*
X6310000Y2435000D02*
D03*
X8290000Y4265000D02*
D03*
D57*
X10086500Y5813300D02*
D03*
X15186501Y3813300D02*
D03*
X14350000Y750000D02*
D03*
X9250000Y2750000D02*
D03*
X6300000Y800000D02*
D03*
X8300000Y5900000D02*
D03*
D58*
X17500000Y14500000D02*
D03*
X500000D02*
D03*
Y500000D02*
D03*
X17500000D02*
D03*
D59*
X3500000D02*
D03*
X9175000Y5500000D02*
D03*
Y500000D02*
D03*
X3500000Y5500000D02*
D03*
X16500000Y500000D02*
D03*
D60*
X17000000Y5800000D02*
D03*
Y1900000D02*
D03*
Y3200000D02*
D03*
Y4500000D02*
D03*
D61*
X15230000Y5800000D02*
D03*
X13710001D02*
D03*
X15230000Y1900000D02*
D03*
X13710001D02*
D03*
Y3200000D02*
D03*
X15230000D02*
D03*
Y4500000D02*
D03*
X13710001D02*
D03*
D62*
X6960000Y10540000D02*
D03*
X13960001D02*
D03*
D63*
X7800000Y13800000D02*
D03*
X6120000D02*
D03*
X7360000Y10030000D02*
D03*
X6560000D02*
D03*
X13560001D02*
D03*
X14360001D02*
D03*
X13120000Y13800000D02*
D03*
X14800000D02*
D03*
D64*
X6960000Y13972000D02*
D03*
X13960001D02*
D03*
D65*
X8295000Y11940000D02*
D03*
X5625000D02*
D03*
X12625000D02*
D03*
X15295000D02*
D03*
D66*
X694000Y10799999D02*
D03*
Y10200000D02*
D03*
X600000Y10500000D02*
D03*
X300000D02*
D03*
D67*
X1900000Y2400000D02*
D03*
Y4100000D02*
D03*
Y6000000D02*
D03*
X2800000Y7850000D02*
D03*
X4800000D02*
D03*
X13150000Y7900000D02*
D03*
X15150000D02*
D03*
D68*
X3054400Y2184400D02*
D03*
X3454400D02*
D03*
X3054400Y1684400D02*
D03*
X3454400D02*
D03*
X5952000Y7250000D02*
D03*
X7730000Y7758000D02*
D03*
X10270000D02*
D03*
X12048000Y7250000D02*
D03*
D69*
X8723000Y8550000D02*
D03*
X16881000Y7135000D02*
D03*
X400000Y11300000D02*
D03*
Y11600000D02*
D03*
Y11900000D02*
D03*
X700000Y11300000D02*
D03*
Y11600000D02*
D03*
D70*
X8977000Y8550000D02*
D03*
D71*
X2654000Y2400000D02*
D03*
X2400000D02*
D03*
X1384000D02*
D03*
X1130000D02*
D03*
X2654000Y4100000D02*
D03*
X2400000D02*
D03*
X1384000D02*
D03*
X1130000D02*
D03*
D72*
X2296000Y9730000D02*
D03*
X646000Y9330000D02*
D03*
D73*
X2804000Y9730000D02*
D03*
X2296000Y9410000D02*
D03*
Y9190000D02*
D03*
Y8970000D02*
D03*
X2804000D02*
D03*
Y9190000D02*
D03*
Y9410000D02*
D03*
X1154000Y9010000D02*
D03*
Y8790000D02*
D03*
Y8570000D02*
D03*
X646000D02*
D03*
Y8790000D02*
D03*
Y9010000D02*
D03*
X1154000Y9330000D02*
D03*
D74*
X16881000Y6835000D02*
D03*
X700000Y11900000D02*
D03*
D75*
X16978999Y7263000D02*
D03*
X302000Y11172000D02*
D03*
X302000Y12322000D02*
D03*
D76*
X400000Y12450000D02*
D03*
Y12750000D02*
D03*
Y13050000D02*
D03*
Y13350000D02*
D03*
Y13650000D02*
D03*
X700000Y12450000D02*
D03*
Y12750000D02*
D03*
Y13050000D02*
D03*
Y13350000D02*
D03*
Y13650000D02*
D03*
D78*
X457200Y5321300D02*
D03*
X2032000Y14122400D02*
D03*
X2159000D02*
D03*
X4419600Y5664200D02*
D03*
X812800Y13208000D02*
D03*
X1420000Y5440899D02*
D03*
X4805000Y5838550D02*
D03*
X4254500Y6076950D02*
D03*
X4900000Y5500000D02*
D03*
X5359400Y5264150D02*
D03*
X4140200Y5238750D02*
D03*
X2717800Y4991100D02*
D03*
X2663400Y5832900D02*
D03*
X3898900Y4686300D02*
D03*
X5308600Y4394200D02*
D03*
X5127300Y4832649D02*
D03*
X4600532Y3987800D02*
D03*
X4400000Y5000000D02*
D03*
X4900000Y4700000D02*
D03*
X2882900Y5003800D02*
D03*
X4610100Y4737100D02*
D03*
X5753100Y4330700D02*
D03*
X4889500Y3365500D02*
D03*
X4152900Y2311400D02*
D03*
X1981360Y12877640D02*
D03*
X1917700Y12977522D02*
D03*
X189134Y13199448D02*
D03*
X1993900Y9372600D02*
D03*
X101600Y6146800D02*
D03*
X1251087Y5493548D02*
D03*
X139700Y6743700D02*
D03*
X723900Y6591300D02*
D03*
X647700Y5600700D02*
D03*
X863600D02*
D03*
X1257300Y6083300D02*
D03*
X850150Y5969750D02*
D03*
X1003300Y5041900D02*
D03*
X1202424Y5599624D02*
D03*
X1917700Y13442290D02*
D03*
Y13321950D02*
D03*
Y13208000D02*
D03*
X2437192Y13115393D02*
D03*
X2159000Y14249400D02*
D03*
X2032000D02*
D03*
X703761Y6892561D02*
D03*
X430600Y7187000D02*
D03*
D79*
X7112000Y1968500D02*
D03*
X6946900Y1689100D02*
D03*
X6781800Y1536700D02*
D03*
X4864100Y7035800D02*
D03*
X3460938Y8549300D02*
D03*
X2927676Y6680200D02*
D03*
X15348935Y6835000D02*
D03*
X15062199Y6832600D02*
D03*
X15214600D02*
D03*
X2768600Y6680200D02*
D03*
X6934200Y1841500D02*
D03*
X3538654Y3741264D02*
D03*
X3467100Y3352800D02*
D03*
X3911600Y3263900D02*
D03*
X3733800Y2540000D02*
D03*
X5450000Y2450000D02*
D03*
Y2300000D02*
D03*
X3800000Y1100000D02*
D03*
X3001401Y10693400D02*
D03*
X2851150D02*
D03*
X2679700D02*
D03*
X3947160Y9404387D02*
D03*
X4165600Y9080500D02*
D03*
X3962400D02*
D03*
X3352800Y9766300D02*
D03*
X300000Y8295534D02*
D03*
X11300000Y8700000D02*
D03*
X1731015Y12500000D02*
D03*
%TF.MD5,eebb40233f3a0eecf4c0e59a840926e7*%
M02*
