%TF.GenerationSoftware,Altium Limited,Altium Designer,24.2.2 (26)*%
G04 Layer_Physical_Order=4*
G04 Layer_Color=16711680*
%FSLAX45Y45*%
%MOMM*%
%TF.SameCoordinates,E62911D3-7CC7-41A5-B2DD-A777233C8753*%
%TF.FilePolarity,Positive*%
%TF.FileFunction,Copper,L4,Bot,Signal*%
%TF.Part,Single*%
G01*
G75*
%TA.AperFunction,Conductor*%
%ADD52C,0.25400*%
%ADD54C,1.01600*%
%ADD55C,0.76200*%
%TA.AperFunction,ComponentPad*%
%ADD56C,3.30000*%
%ADD57C,3.00000*%
%ADD58C,7.00000*%
%ADD59C,6.00000*%
%ADD60C,1.40000*%
%ADD61C,2.50000*%
%ADD62O,35.00000X4.00000*%
%ADD63C,2.03200*%
%ADD64C,6.80000*%
%ADD65C,16.50000*%
%TA.AperFunction,WasherPad*%
%ADD67C,1.00000*%
%TA.AperFunction,ComponentPad*%
%ADD68C,2.00000*%
%ADD69C,1.57000*%
%ADD70R,1.57000X1.57000*%
%ADD71C,1.80000*%
%ADD72R,1.25000X1.25000*%
%ADD73C,1.25000*%
%ADD74R,1.57000X1.57000*%
%ADD75C,1.02000*%
%ADD76C,1.52000*%
%ADD77R,1.52000X1.52000*%
%TA.AperFunction,ViaPad*%
%ADD78C,0.63500*%
%ADD79C,1.01600*%
G36*
X2600000Y11350000D02*
X4250000Y9700000D01*
Y8350000D01*
X1350000D01*
X950000Y7950000D01*
Y6800000D01*
X1550000Y6200000D01*
Y5350000D01*
X1250000Y5050000D01*
Y4700000D01*
X1500000Y4450000D01*
X1500000Y4450000D01*
Y4000000D01*
X1250000Y3750000D01*
Y2750000D01*
X1500000Y2500000D01*
Y2300000D01*
X1250000Y2050000D01*
Y511255D01*
X860160D01*
Y528345D01*
X851292Y584338D01*
X833774Y638253D01*
X808037Y688765D01*
X774715Y734629D01*
X734629Y774715D01*
X688765Y808037D01*
X638253Y833774D01*
X584338Y851292D01*
X528345Y860160D01*
X471655D01*
X415662Y851292D01*
X361747Y833774D01*
X311235Y808037D01*
X265371Y774715D01*
X225285Y734629D01*
X191963Y688765D01*
X166226Y638253D01*
X148708Y584338D01*
X139840Y528345D01*
Y511255D01*
X61338D01*
Y14488745D01*
X139840D01*
Y14471655D01*
X148708Y14415662D01*
X166226Y14361746D01*
X191963Y14311235D01*
X225285Y14265372D01*
X265371Y14225285D01*
X311235Y14191963D01*
X361747Y14166226D01*
X415662Y14148708D01*
X471655Y14139841D01*
X528345D01*
X584338Y14148708D01*
X638253Y14166226D01*
X688765Y14191963D01*
X734629Y14225285D01*
X774715Y14265372D01*
X808037Y14311235D01*
X833774Y14361746D01*
X851292Y14415662D01*
X860160Y14471655D01*
Y14488745D01*
X2600000D01*
Y11350000D01*
D02*
G37*
%LPC*%
G36*
X2167842Y14293851D02*
X2150158D01*
X2133821Y14287083D01*
X2121317Y14274579D01*
X2114550Y14258241D01*
Y14240558D01*
X2121317Y14224220D01*
X2133821Y14211717D01*
X2150158Y14204950D01*
X2167842D01*
X2184179Y14211717D01*
X2196683Y14224220D01*
X2203450Y14240558D01*
Y14258241D01*
X2196683Y14274579D01*
X2184179Y14287083D01*
X2167842Y14293851D01*
D02*
G37*
G36*
X2040842D02*
X2023158D01*
X2006821Y14287083D01*
X1994317Y14274579D01*
X1987550Y14258241D01*
Y14240558D01*
X1994317Y14224220D01*
X2006821Y14211717D01*
X2023158Y14204950D01*
X2040842D01*
X2057179Y14211717D01*
X2069683Y14224220D01*
X2076450Y14240558D01*
Y14258241D01*
X2069683Y14274579D01*
X2057179Y14287083D01*
X2040842Y14293851D01*
D02*
G37*
G36*
X2167842Y14166850D02*
X2150158D01*
X2133821Y14160083D01*
X2121317Y14147578D01*
X2114550Y14131242D01*
Y14113557D01*
X2121317Y14097221D01*
X2133821Y14084717D01*
X2150158Y14077950D01*
X2167842D01*
X2184179Y14084717D01*
X2196683Y14097221D01*
X2203450Y14113557D01*
Y14131242D01*
X2196683Y14147578D01*
X2184179Y14160083D01*
X2167842Y14166850D01*
D02*
G37*
G36*
X2040842D02*
X2023158D01*
X2006821Y14160083D01*
X1994317Y14147578D01*
X1987550Y14131242D01*
Y14113557D01*
X1994317Y14097221D01*
X2006821Y14084717D01*
X2023158Y14077950D01*
X2040842D01*
X2057179Y14084717D01*
X2069683Y14097221D01*
X2076450Y14113557D01*
Y14131242D01*
X2069683Y14147578D01*
X2057179Y14160083D01*
X2040842Y14166850D01*
D02*
G37*
G36*
X786160Y13736160D02*
X613840D01*
Y13563840D01*
X786160D01*
Y13736160D01*
D02*
G37*
G36*
X711343Y13436160D02*
X688657D01*
X666743Y13430289D01*
X647096Y13418945D01*
X631055Y13402904D01*
X619712Y13383257D01*
X613840Y13361343D01*
Y13338657D01*
X619712Y13316743D01*
X631055Y13297096D01*
X647096Y13281055D01*
X666743Y13269711D01*
X688657Y13263840D01*
X711343D01*
X733256Y13269711D01*
X752903Y13281055D01*
X768945Y13297096D01*
X780288Y13316743D01*
X786160Y13338657D01*
Y13361343D01*
X780288Y13383257D01*
X768945Y13402904D01*
X752903Y13418945D01*
X733256Y13430289D01*
X711343Y13436160D01*
D02*
G37*
G36*
X411343D02*
X388657D01*
X366743Y13430289D01*
X347097Y13418945D01*
X331055Y13402904D01*
X319712Y13383257D01*
X313840Y13361343D01*
Y13338657D01*
X319712Y13316743D01*
X331055Y13297096D01*
X347097Y13281055D01*
X366743Y13269711D01*
X388657Y13263840D01*
X411343D01*
X433256Y13269711D01*
X452903Y13281055D01*
X468945Y13297096D01*
X480288Y13316743D01*
X486160Y13338657D01*
Y13361343D01*
X480288Y13383257D01*
X468945Y13402904D01*
X452903Y13418945D01*
X433256Y13430289D01*
X411343Y13436160D01*
D02*
G37*
G36*
Y13736160D02*
X388657D01*
X366743Y13730289D01*
X347097Y13718945D01*
X331055Y13702904D01*
X319712Y13683257D01*
X313840Y13661343D01*
Y13638657D01*
X319712Y13616743D01*
X331055Y13597096D01*
X347097Y13581055D01*
X366743Y13569711D01*
X388657Y13563840D01*
X411343D01*
X413149Y13564323D01*
X417850Y13557288D01*
X528059Y13447078D01*
Y13278934D01*
X529834Y13270013D01*
X534886Y13262453D01*
X626278Y13171060D01*
X633839Y13166008D01*
X642759Y13164233D01*
X712395D01*
X721315Y13166008D01*
X728876Y13171060D01*
X742508Y13184692D01*
X774342D01*
X775117Y13182822D01*
X787621Y13170317D01*
X803958Y13163550D01*
X821642D01*
X837979Y13170317D01*
X850483Y13182822D01*
X857250Y13199158D01*
Y13216843D01*
X850483Y13233179D01*
X837979Y13245683D01*
X821642Y13252451D01*
X803958D01*
X787621Y13245683D01*
X775117Y13233179D01*
X774342Y13231308D01*
X732854D01*
X723934Y13229533D01*
X716373Y13224481D01*
X702741Y13210849D01*
X652413D01*
X574675Y13288586D01*
Y13456734D01*
X572901Y13465652D01*
X567848Y13473215D01*
X465246Y13575816D01*
X465152Y13593304D01*
X468945Y13597096D01*
X480288Y13616743D01*
X486160Y13638657D01*
Y13661343D01*
X480288Y13683257D01*
X468945Y13702904D01*
X452903Y13718945D01*
X433256Y13730289D01*
X411343Y13736160D01*
D02*
G37*
G36*
X197976Y13243896D02*
X180292D01*
X163955Y13237131D01*
X151451Y13224626D01*
X144684Y13208289D01*
Y13190607D01*
X151451Y13174269D01*
X163955Y13161765D01*
X180292Y13154997D01*
X197976D01*
X214313Y13161765D01*
X226817Y13174269D01*
X233584Y13190607D01*
Y13208289D01*
X226817Y13224626D01*
X214313Y13237131D01*
X197976Y13243896D01*
D02*
G37*
G36*
X711343Y13136160D02*
X688657D01*
X666743Y13130289D01*
X647096Y13118945D01*
X631055Y13102904D01*
X619712Y13083257D01*
X613840Y13061343D01*
Y13038657D01*
X619712Y13016743D01*
X631055Y12997096D01*
X647096Y12981055D01*
X666743Y12969711D01*
X688657Y12963840D01*
X711343D01*
X733256Y12969711D01*
X752903Y12981055D01*
X768945Y12997096D01*
X780288Y13016743D01*
X786160Y13038657D01*
Y13061343D01*
X780288Y13083257D01*
X768945Y13102904D01*
X752903Y13118945D01*
X733256Y13130289D01*
X711343Y13136160D01*
D02*
G37*
G36*
X411343D02*
X388657D01*
X366743Y13130289D01*
X347097Y13118945D01*
X331055Y13102904D01*
X319712Y13083257D01*
X313840Y13061343D01*
Y13038657D01*
X319712Y13016743D01*
X331055Y12997096D01*
X347097Y12981055D01*
X366743Y12969711D01*
X388657Y12963840D01*
X411343D01*
X433256Y12969711D01*
X452903Y12981055D01*
X468945Y12997096D01*
X480288Y13016743D01*
X486160Y13038657D01*
Y13061343D01*
X480288Y13083257D01*
X468945Y13102904D01*
X452903Y13118945D01*
X433256Y13130289D01*
X411343Y13136160D01*
D02*
G37*
G36*
X711343Y12836160D02*
X688657D01*
X666743Y12830289D01*
X647096Y12818945D01*
X631055Y12802904D01*
X619712Y12783256D01*
X613840Y12761343D01*
Y12738657D01*
X619712Y12716743D01*
X631055Y12697097D01*
X647096Y12681055D01*
X666743Y12669712D01*
X688657Y12663840D01*
X711343D01*
X733256Y12669712D01*
X752903Y12681055D01*
X768945Y12697097D01*
X780288Y12716743D01*
X786160Y12738657D01*
Y12761343D01*
X780288Y12783256D01*
X768945Y12802904D01*
X752903Y12818945D01*
X733256Y12830289D01*
X711343Y12836160D01*
D02*
G37*
G36*
X411343D02*
X388657D01*
X366743Y12830289D01*
X347097Y12818945D01*
X331055Y12802904D01*
X319712Y12783256D01*
X313840Y12761343D01*
Y12738657D01*
X319712Y12716743D01*
X331055Y12697097D01*
X347097Y12681055D01*
X366743Y12669712D01*
X388657Y12663840D01*
X411343D01*
X433256Y12669712D01*
X452903Y12681055D01*
X468945Y12697097D01*
X480288Y12716743D01*
X486160Y12738657D01*
Y12761343D01*
X480288Y12783256D01*
X468945Y12802904D01*
X452903Y12818945D01*
X433256Y12830289D01*
X411343Y12836160D01*
D02*
G37*
G36*
X1743646Y12563500D02*
X1718384D01*
X1695045Y12553833D01*
X1677182Y12535970D01*
X1667515Y12512631D01*
Y12487369D01*
X1677182Y12464030D01*
X1695045Y12446167D01*
X1718384Y12436500D01*
X1743646D01*
X1766985Y12446167D01*
X1784848Y12464030D01*
X1794515Y12487369D01*
Y12512631D01*
X1784848Y12535970D01*
X1766985Y12553833D01*
X1743646Y12563500D01*
D02*
G37*
G36*
X711343Y12536160D02*
X688657D01*
X666743Y12530288D01*
X647096Y12518945D01*
X631055Y12502903D01*
X619712Y12483256D01*
X613840Y12461343D01*
Y12438657D01*
X619712Y12416744D01*
X631055Y12397097D01*
X647096Y12381055D01*
X666743Y12369712D01*
X688657Y12363840D01*
X711343D01*
X733256Y12369712D01*
X752903Y12381055D01*
X768945Y12397097D01*
X780288Y12416744D01*
X786160Y12438657D01*
Y12461343D01*
X780288Y12483256D01*
X768945Y12502903D01*
X752903Y12518945D01*
X733256Y12530288D01*
X711343Y12536160D01*
D02*
G37*
G36*
X312058Y12398400D02*
X291942D01*
X272511Y12393193D01*
X255089Y12383135D01*
X240865Y12368910D01*
X230807Y12351489D01*
X225600Y12332058D01*
Y12311942D01*
X230807Y12292511D01*
X240865Y12275089D01*
X255089Y12260865D01*
X272511Y12250807D01*
X291942Y12245600D01*
X312058D01*
X331489Y12250807D01*
X348910Y12260865D01*
X363135Y12275089D01*
X373193Y12292511D01*
X378400Y12311942D01*
Y12332058D01*
X373193Y12351489D01*
X363135Y12368910D01*
X348910Y12383135D01*
X331489Y12393193D01*
X312058Y12398400D01*
D02*
G37*
G36*
X411672Y11988660D02*
X388328D01*
X365779Y11982618D01*
X345561Y11970946D01*
X329054Y11954438D01*
X317382Y11934221D01*
X311340Y11911672D01*
Y11888328D01*
X317382Y11865778D01*
X329054Y11845561D01*
X345561Y11829054D01*
X365779Y11817382D01*
X388328Y11811340D01*
X411672D01*
X434221Y11817382D01*
X454439Y11829054D01*
X470946Y11845561D01*
X482618Y11865778D01*
X488660Y11888328D01*
Y11911672D01*
X482618Y11934221D01*
X470946Y11954438D01*
X454439Y11970946D01*
X434221Y11982618D01*
X411672Y11988660D01*
D02*
G37*
G36*
Y11388660D02*
X388328D01*
X365779Y11382618D01*
X345561Y11370946D01*
X329054Y11354439D01*
X317382Y11334221D01*
X311340Y11311672D01*
Y11288328D01*
X317382Y11265779D01*
X321246Y11259086D01*
X312877Y11248180D01*
X312058Y11248400D01*
X291942D01*
X272511Y11243193D01*
X255090Y11233135D01*
X240865Y11218911D01*
X230807Y11201489D01*
X225600Y11182058D01*
Y11161942D01*
X230807Y11142511D01*
X240865Y11125090D01*
X255090Y11110865D01*
X272511Y11100807D01*
X291942Y11095600D01*
X312058D01*
X331489Y11100807D01*
X348911Y11110865D01*
X363135Y11125090D01*
X373193Y11142511D01*
X378400Y11161942D01*
Y11182058D01*
X373193Y11201489D01*
X372676Y11202386D01*
X381044Y11213292D01*
X388328Y11211340D01*
X411672D01*
X434221Y11217382D01*
X454439Y11229054D01*
X470946Y11245561D01*
X482618Y11265779D01*
X488660Y11288328D01*
Y11311672D01*
X482618Y11334221D01*
X470946Y11354439D01*
X454439Y11370946D01*
X434221Y11382618D01*
X411672Y11388660D01*
D02*
G37*
G36*
X711672D02*
X688328D01*
X665779Y11382618D01*
X645562Y11370946D01*
X629054Y11354439D01*
X617382Y11334221D01*
X611340Y11311672D01*
Y11288328D01*
X617382Y11265779D01*
X629054Y11245561D01*
X645562Y11229054D01*
X665779Y11217382D01*
X688328Y11211340D01*
X711672D01*
X734222Y11217382D01*
X754439Y11229054D01*
X770946Y11245561D01*
X782618Y11265779D01*
X788660Y11288328D01*
Y11311672D01*
X782618Y11334221D01*
X770946Y11354439D01*
X754439Y11370946D01*
X734222Y11382618D01*
X711672Y11388660D01*
D02*
G37*
G36*
X704058Y10876399D02*
X683942D01*
X664511Y10871192D01*
X647090Y10861134D01*
X632865Y10846909D01*
X622807Y10829488D01*
X617600Y10810057D01*
Y10789941D01*
X622807Y10770510D01*
X632865Y10753088D01*
X647090Y10738864D01*
X664511Y10728806D01*
X683942Y10723599D01*
X704058D01*
X723489Y10728806D01*
X740911Y10738864D01*
X755135Y10753088D01*
X765193Y10770510D01*
X770400Y10789941D01*
Y10810057D01*
X765193Y10829488D01*
X755135Y10846909D01*
X740911Y10861134D01*
X723489Y10871192D01*
X704058Y10876399D01*
D02*
G37*
G36*
X611343Y10586160D02*
X588657D01*
X566744Y10580288D01*
X547097Y10568945D01*
X531055Y10552903D01*
X519712Y10533257D01*
X513840Y10511343D01*
Y10488657D01*
X519712Y10466744D01*
X531055Y10447097D01*
X547097Y10431055D01*
X566744Y10419712D01*
X588657Y10413840D01*
X611343D01*
X633257Y10419712D01*
X652903Y10431055D01*
X668945Y10447097D01*
X680288Y10466744D01*
X686160Y10488657D01*
Y10511343D01*
X680288Y10533257D01*
X668945Y10552903D01*
X652903Y10568945D01*
X633257Y10580288D01*
X611343Y10586160D01*
D02*
G37*
G36*
X386160D02*
X213840D01*
Y10413840D01*
X386160D01*
Y10586160D01*
D02*
G37*
G36*
X704058Y10276400D02*
X683942D01*
X664511Y10271193D01*
X647090Y10261135D01*
X632865Y10246911D01*
X622807Y10229489D01*
X617600Y10210058D01*
Y10189942D01*
X622807Y10170511D01*
X632865Y10153090D01*
X647090Y10138865D01*
X664511Y10128807D01*
X683942Y10123600D01*
X704058D01*
X723489Y10128807D01*
X740911Y10138865D01*
X755135Y10153090D01*
X765193Y10170511D01*
X770400Y10189942D01*
Y10210058D01*
X765193Y10229489D01*
X755135Y10246911D01*
X740911Y10261135D01*
X723489Y10271193D01*
X704058Y10276400D01*
D02*
G37*
G36*
X2813566Y9802660D02*
X2794434D01*
X2775954Y9797708D01*
X2759386Y9788142D01*
X2745858Y9774614D01*
X2736292Y9758046D01*
X2731340Y9739566D01*
Y9720434D01*
X2736292Y9701954D01*
X2745858Y9685386D01*
X2759386Y9671858D01*
X2775954Y9662292D01*
X2794434Y9657340D01*
X2813566D01*
X2832046Y9662292D01*
X2848614Y9671858D01*
X2862142Y9685386D01*
X2871708Y9701954D01*
X2876660Y9720434D01*
Y9739566D01*
X2871708Y9758046D01*
X2862142Y9774614D01*
X2848614Y9788142D01*
X2832046Y9797708D01*
X2813566Y9802660D01*
D02*
G37*
G36*
X2368660D02*
X2223340D01*
Y9657340D01*
X2368660D01*
Y9802660D01*
D02*
G37*
G36*
X2813566Y9482660D02*
X2794434D01*
X2775954Y9477708D01*
X2759386Y9468142D01*
X2745858Y9454614D01*
X2736292Y9438046D01*
X2731340Y9419566D01*
Y9400434D01*
X2736292Y9381954D01*
X2745858Y9365386D01*
X2759386Y9351858D01*
X2775954Y9342292D01*
X2794434Y9337340D01*
X2813566D01*
X2832046Y9342292D01*
X2848614Y9351858D01*
X2862142Y9365386D01*
X2871708Y9381954D01*
X2876660Y9400434D01*
Y9419566D01*
X2871708Y9438046D01*
X2862142Y9454614D01*
X2848614Y9468142D01*
X2832046Y9477708D01*
X2813566Y9482660D01*
D02*
G37*
G36*
X2305566D02*
X2286434D01*
X2267954Y9477708D01*
X2251386Y9468142D01*
X2237858Y9454614D01*
X2228292Y9438046D01*
X2223340Y9419566D01*
Y9400434D01*
X2228292Y9381954D01*
X2237858Y9365386D01*
X2251386Y9351858D01*
X2267954Y9342292D01*
X2286434Y9337340D01*
X2305566D01*
X2324046Y9342292D01*
X2340614Y9351858D01*
X2354142Y9365386D01*
X2363708Y9381954D01*
X2368660Y9400434D01*
Y9419566D01*
X2363708Y9438046D01*
X2354142Y9454614D01*
X2340614Y9468142D01*
X2324046Y9477708D01*
X2305566Y9482660D01*
D02*
G37*
G36*
X718660Y9402660D02*
X573340D01*
Y9257340D01*
X718660D01*
Y9402660D01*
D02*
G37*
G36*
X2813566Y9262660D02*
X2794434D01*
X2775954Y9257708D01*
X2759386Y9248143D01*
X2745858Y9234614D01*
X2736292Y9218046D01*
X2731340Y9199566D01*
Y9180434D01*
X2736292Y9161954D01*
X2745858Y9145386D01*
X2759386Y9131858D01*
X2775954Y9122292D01*
X2794434Y9117340D01*
X2813566D01*
X2832046Y9122292D01*
X2848614Y9131858D01*
X2862142Y9145386D01*
X2871708Y9161954D01*
X2876660Y9180434D01*
Y9199566D01*
X2871708Y9218046D01*
X2862142Y9234614D01*
X2848614Y9248143D01*
X2832046Y9257708D01*
X2813566Y9262660D01*
D02*
G37*
G36*
X2305566D02*
X2286434D01*
X2267954Y9257708D01*
X2251386Y9248143D01*
X2237858Y9234614D01*
X2228292Y9218046D01*
X2223340Y9199566D01*
Y9180434D01*
X2228292Y9161954D01*
X2237858Y9145386D01*
X2251386Y9131858D01*
X2267954Y9122292D01*
X2286434Y9117340D01*
X2305566D01*
X2324046Y9122292D01*
X2340614Y9131858D01*
X2354142Y9145386D01*
X2363708Y9161954D01*
X2368660Y9180434D01*
Y9199566D01*
X2363708Y9218046D01*
X2354142Y9234614D01*
X2340614Y9248143D01*
X2324046Y9257708D01*
X2305566Y9262660D01*
D02*
G37*
G36*
X1163566Y9082660D02*
X1144434D01*
X1125954Y9077708D01*
X1109386Y9068142D01*
X1095858Y9054614D01*
X1086292Y9038045D01*
X1081340Y9019566D01*
Y9000434D01*
X1086292Y8981954D01*
X1095858Y8965385D01*
X1109386Y8951857D01*
X1125954Y8942291D01*
X1144434Y8937340D01*
X1163566D01*
X1182046Y8942291D01*
X1198614Y8951857D01*
X1212142Y8965385D01*
X1221708Y8981954D01*
X1226660Y9000434D01*
Y9019566D01*
X1221708Y9038045D01*
X1212142Y9054614D01*
X1198614Y9068142D01*
X1182046Y9077708D01*
X1163566Y9082660D01*
D02*
G37*
G36*
X655566D02*
X636434D01*
X617954Y9077708D01*
X601386Y9068142D01*
X587858Y9054614D01*
X578292Y9038045D01*
X573340Y9019566D01*
Y9000434D01*
X578292Y8981954D01*
X587858Y8965385D01*
X601386Y8951857D01*
X617954Y8942291D01*
X636434Y8937340D01*
X655566D01*
X674046Y8942291D01*
X690614Y8951857D01*
X704142Y8965385D01*
X713708Y8981954D01*
X718660Y9000434D01*
Y9019566D01*
X713708Y9038045D01*
X704142Y9054614D01*
X690614Y9068142D01*
X674046Y9077708D01*
X655566Y9082660D01*
D02*
G37*
G36*
X2813566Y9042660D02*
X2794434D01*
X2775954Y9037708D01*
X2759386Y9028142D01*
X2745858Y9014614D01*
X2736292Y8998046D01*
X2731340Y8979566D01*
Y8960434D01*
X2736292Y8941954D01*
X2745858Y8925386D01*
X2759386Y8911858D01*
X2775954Y8902292D01*
X2794434Y8897340D01*
X2813566D01*
X2832046Y8902292D01*
X2848614Y8911858D01*
X2862142Y8925386D01*
X2871708Y8941954D01*
X2876660Y8960434D01*
Y8979566D01*
X2871708Y8998046D01*
X2862142Y9014614D01*
X2848614Y9028142D01*
X2832046Y9037708D01*
X2813566Y9042660D01*
D02*
G37*
G36*
X2305566D02*
X2286434D01*
X2267954Y9037708D01*
X2251386Y9028142D01*
X2237858Y9014614D01*
X2228292Y8998046D01*
X2223340Y8979566D01*
Y8960434D01*
X2228292Y8941954D01*
X2237858Y8925386D01*
X2251386Y8911858D01*
X2267954Y8902292D01*
X2286434Y8897340D01*
X2305566D01*
X2324046Y8902292D01*
X2340614Y8911858D01*
X2354142Y8925386D01*
X2363708Y8941954D01*
X2368660Y8960434D01*
Y8979566D01*
X2363708Y8998046D01*
X2354142Y9014614D01*
X2340614Y9028142D01*
X2324046Y9037708D01*
X2305566Y9042660D01*
D02*
G37*
G36*
X1163566Y8862660D02*
X1144434D01*
X1125954Y8857708D01*
X1109386Y8848142D01*
X1095858Y8834614D01*
X1086292Y8818046D01*
X1081340Y8799566D01*
Y8780434D01*
X1086292Y8761954D01*
X1095858Y8745386D01*
X1109386Y8731858D01*
X1125954Y8722292D01*
X1144434Y8717340D01*
X1163566D01*
X1182046Y8722292D01*
X1198614Y8731858D01*
X1212142Y8745386D01*
X1221708Y8761954D01*
X1226660Y8780434D01*
Y8799566D01*
X1221708Y8818046D01*
X1212142Y8834614D01*
X1198614Y8848142D01*
X1182046Y8857708D01*
X1163566Y8862660D01*
D02*
G37*
G36*
X655566D02*
X636434D01*
X617954Y8857708D01*
X601386Y8848142D01*
X587858Y8834614D01*
X578292Y8818046D01*
X573340Y8799566D01*
Y8780434D01*
X578292Y8761954D01*
X587858Y8745386D01*
X601386Y8731858D01*
X617954Y8722292D01*
X636434Y8717340D01*
X655566D01*
X674046Y8722292D01*
X690614Y8731858D01*
X704142Y8745386D01*
X713708Y8761954D01*
X718660Y8780434D01*
Y8799566D01*
X713708Y8818046D01*
X704142Y8834614D01*
X690614Y8848142D01*
X674046Y8857708D01*
X655566Y8862660D01*
D02*
G37*
G36*
X1163566Y8642660D02*
X1144434D01*
X1125954Y8637708D01*
X1109386Y8628142D01*
X1095858Y8614614D01*
X1086292Y8598046D01*
X1081340Y8579566D01*
Y8560434D01*
X1086292Y8541954D01*
X1095858Y8525386D01*
X1109386Y8511858D01*
X1125954Y8502292D01*
X1144434Y8497340D01*
X1163566D01*
X1182046Y8502292D01*
X1198614Y8511858D01*
X1212142Y8525386D01*
X1221708Y8541954D01*
X1226660Y8560434D01*
Y8579566D01*
X1221708Y8598046D01*
X1212142Y8614614D01*
X1198614Y8628142D01*
X1182046Y8637708D01*
X1163566Y8642660D01*
D02*
G37*
G36*
X655566D02*
X636434D01*
X617954Y8637708D01*
X601386Y8628142D01*
X587858Y8614614D01*
X578292Y8598046D01*
X573340Y8579566D01*
Y8560434D01*
X578292Y8541954D01*
X587858Y8525386D01*
X601386Y8511858D01*
X617954Y8502292D01*
X636434Y8497340D01*
X655566D01*
X674046Y8502292D01*
X690614Y8511858D01*
X704142Y8525386D01*
X713708Y8541954D01*
X718660Y8560434D01*
Y8579566D01*
X713708Y8598046D01*
X704142Y8614614D01*
X690614Y8628142D01*
X674046Y8637708D01*
X655566Y8642660D01*
D02*
G37*
G36*
X3473569Y8612800D02*
X3448307D01*
X3424968Y8603133D01*
X3407105Y8585270D01*
X3397438Y8561931D01*
Y8536669D01*
X3407105Y8513330D01*
X3424968Y8495467D01*
X3448307Y8485800D01*
X3473569D01*
X3496908Y8495467D01*
X3514771Y8513330D01*
X3524438Y8536669D01*
Y8561931D01*
X3514771Y8585270D01*
X3496908Y8603133D01*
X3473569Y8612800D01*
D02*
G37*
G36*
X439442Y7231450D02*
X421758D01*
X405421Y7224683D01*
X392917Y7212179D01*
X386150Y7195842D01*
Y7178158D01*
X392917Y7161821D01*
X405421Y7149317D01*
X421758Y7142550D01*
X439442D01*
X455779Y7149317D01*
X468283Y7161821D01*
X475050Y7178158D01*
Y7195842D01*
X468283Y7212179D01*
X455779Y7224683D01*
X439442Y7231450D01*
D02*
G37*
G36*
X148542Y6788150D02*
X130858D01*
X114521Y6781383D01*
X102017Y6768879D01*
X95250Y6752542D01*
Y6734858D01*
X102017Y6718521D01*
X114521Y6706017D01*
X130858Y6699250D01*
X148542D01*
X164879Y6706017D01*
X177383Y6718521D01*
X184150Y6734858D01*
Y6752542D01*
X177383Y6768879D01*
X164879Y6781383D01*
X148542Y6788150D01*
D02*
G37*
G36*
X732742Y6635750D02*
X715058D01*
X698721Y6628983D01*
X686217Y6616479D01*
X679450Y6600142D01*
Y6582458D01*
X686217Y6566121D01*
X698721Y6553617D01*
X715058Y6546850D01*
X732742D01*
X749079Y6553617D01*
X761583Y6566121D01*
X768350Y6582458D01*
Y6600142D01*
X761583Y6616479D01*
X749079Y6628983D01*
X732742Y6635750D01*
D02*
G37*
G36*
X872442Y5645150D02*
X854758D01*
X838421Y5638383D01*
X825917Y5625879D01*
X825142Y5624008D01*
X686158D01*
X685383Y5625879D01*
X672879Y5638383D01*
X656542Y5645150D01*
X638858D01*
X622521Y5638383D01*
X610017Y5625879D01*
X603250Y5609542D01*
Y5591858D01*
X610017Y5575521D01*
X622521Y5563017D01*
X638858Y5556250D01*
X656542D01*
X672879Y5563017D01*
X685383Y5575521D01*
X686158Y5577392D01*
X825142D01*
X825917Y5575521D01*
X838421Y5563017D01*
X854758Y5556250D01*
X872442D01*
X888779Y5563017D01*
X901283Y5575521D01*
X908050Y5591858D01*
Y5609542D01*
X901283Y5625879D01*
X888779Y5638383D01*
X872442Y5645150D01*
D02*
G37*
G36*
X1259929Y5537998D02*
X1242245D01*
X1225908Y5531231D01*
X1213404Y5518727D01*
X1212630Y5516856D01*
X629448D01*
X620529Y5515082D01*
X612967Y5510029D01*
X467913Y5364975D01*
X466042Y5365750D01*
X448358D01*
X432021Y5358983D01*
X419517Y5346479D01*
X412750Y5330142D01*
Y5312458D01*
X419517Y5296121D01*
X432021Y5283617D01*
X448358Y5276850D01*
X466042D01*
X482379Y5283617D01*
X494883Y5296121D01*
X501650Y5312458D01*
Y5330142D01*
X500875Y5332013D01*
X639103Y5470241D01*
X1212630D01*
X1213404Y5468370D01*
X1225908Y5455866D01*
X1242245Y5449098D01*
X1259929D01*
X1276266Y5455866D01*
X1288770Y5468370D01*
X1295537Y5484707D01*
Y5502390D01*
X1288770Y5518727D01*
X1276266Y5531231D01*
X1259929Y5537998D01*
D02*
G37*
G36*
X1428842Y5485349D02*
X1411158D01*
X1394821Y5478582D01*
X1382317Y5466078D01*
X1375550Y5449741D01*
Y5432058D01*
X1382317Y5415721D01*
X1394821Y5403217D01*
X1411158Y5396449D01*
X1428842D01*
X1445179Y5403217D01*
X1457683Y5415721D01*
X1464450Y5432058D01*
Y5449741D01*
X1457683Y5466078D01*
X1445179Y5478582D01*
X1428842Y5485349D01*
D02*
G37*
G36*
X1143187Y4200159D02*
X1116814D01*
X1091340Y4193334D01*
X1068501Y4180148D01*
X1049852Y4161499D01*
X1036666Y4138660D01*
X1029840Y4113186D01*
Y4086813D01*
X1036666Y4061339D01*
X1049852Y4038500D01*
X1068501Y4019852D01*
X1091340Y4006666D01*
X1116814Y3999840D01*
X1143187D01*
X1168661Y4006666D01*
X1191500Y4019852D01*
X1210148Y4038500D01*
X1223334Y4061339D01*
X1230160Y4086813D01*
Y4113186D01*
X1223334Y4138660D01*
X1210148Y4161499D01*
X1191500Y4180148D01*
X1168661Y4193334D01*
X1143187Y4200159D01*
D02*
G37*
G36*
X1397186Y2500160D02*
X1370814D01*
X1345340Y2493334D01*
X1322500Y2480148D01*
X1303852Y2461500D01*
X1290666Y2438660D01*
X1283840Y2413186D01*
Y2386814D01*
X1290666Y2361340D01*
X1303852Y2338500D01*
X1322500Y2319852D01*
X1345340Y2306666D01*
X1370814Y2299840D01*
X1397186D01*
X1422660Y2306666D01*
X1445500Y2319852D01*
X1464148Y2338500D01*
X1477334Y2361340D01*
X1484160Y2386814D01*
Y2413186D01*
X1477334Y2438660D01*
X1464148Y2461500D01*
X1445500Y2480148D01*
X1422660Y2493334D01*
X1397186Y2500160D01*
D02*
G37*
G36*
X1143186D02*
X1116814D01*
X1091340Y2493334D01*
X1068500Y2480148D01*
X1049852Y2461500D01*
X1036666Y2438660D01*
X1029840Y2413186D01*
Y2386814D01*
X1036666Y2361340D01*
X1049852Y2338500D01*
X1068500Y2319852D01*
X1091340Y2306666D01*
X1116814Y2299840D01*
X1143186D01*
X1168660Y2306666D01*
X1191500Y2319852D01*
X1210148Y2338500D01*
X1223334Y2361340D01*
X1230160Y2386814D01*
Y2413186D01*
X1223334Y2438660D01*
X1210148Y2461500D01*
X1191500Y2480148D01*
X1168660Y2493334D01*
X1143186Y2500160D01*
D02*
G37*
%LPD*%
D52*
X457200Y5321300D02*
X629448Y5493548D01*
X1251087D01*
X4110403Y5211343D02*
X4137810Y5238750D01*
X4140200D01*
X4110403Y5189903D02*
Y5211343D01*
X3975100Y5054600D02*
X4110403Y5189903D01*
X3098800Y5054600D02*
X3975100D01*
X3022600Y5130800D02*
X3098800Y5054600D01*
X3022600Y5130800D02*
Y5473700D01*
X2663400Y5832900D02*
X3022600Y5473700D01*
X732854Y13208000D02*
X812800D01*
X642759Y13187541D02*
X712395D01*
X732854Y13208000D01*
X551367Y13278934D02*
X642759Y13187541D01*
X5359400Y5064749D02*
Y5264150D01*
X5127300Y4832649D02*
X5359400Y5064749D01*
X4574179Y3365500D02*
X4889500D01*
X4559300Y3350621D02*
X4574179Y3365500D01*
X4559300Y3046805D02*
Y3350621D01*
X4152900Y2311400D02*
Y2640405D01*
X4559300Y3046805D01*
X647700Y5600700D02*
X863600D01*
X551367Y13278934D02*
Y13456734D01*
X400000Y13615742D02*
X434331Y13581412D01*
Y13573769D02*
X551367Y13456734D01*
X400000Y13615742D02*
Y13650000D01*
X434331Y13573769D02*
Y13581412D01*
D54*
X14846143Y3200000D02*
X15248482Y3602340D01*
X15565739D02*
X15925800Y3962400D01*
X15248482Y3602340D02*
X15565739D01*
X13710001Y3200000D02*
X14846143D01*
X2768600Y6680200D02*
X5648464D01*
X7189625Y5139040D01*
X9937040D01*
X12048000Y7250000D01*
X7112000Y2235200D02*
X9525000Y4648200D01*
X6934200Y1701800D02*
Y1841500D01*
X7061200Y1968500D01*
X7112000D01*
Y2235200D01*
X6934200Y1701800D02*
X6946900Y1689100D01*
X6934200D02*
X6946900D01*
X6781800Y1536700D02*
X6934200Y1689100D01*
X12558200Y4648200D02*
X13710001Y5800000D01*
X9525000Y4648200D02*
X12558200D01*
X15925800Y3962400D02*
Y6502400D01*
X16258400Y6835000D02*
X16881000D01*
X15925800Y6502400D02*
X16258400Y6835000D01*
X15536084Y4500000D02*
X15595599Y4559516D01*
Y6908800D02*
X17399001Y8712200D01*
X15230000Y4500000D02*
X15536084D01*
X15595599Y4559516D02*
Y6908800D01*
X16272400Y11908900D02*
X17399001Y10782300D01*
Y8712200D02*
Y10782300D01*
X15295000Y11940000D02*
X15326100Y11908900D01*
X16272400D01*
D55*
X11300000Y8700000D02*
X13030000D01*
X10250000D02*
X11300000D01*
X7730000Y7758000D02*
Y9660000D01*
X7360000Y10030000D02*
X7730000Y9660000D01*
Y7758000D02*
X9308000D01*
X10250000Y8700000D01*
X13030000D02*
X14360001Y10030000D01*
D56*
X11721500Y5803300D02*
D03*
X13551500Y3823300D02*
D03*
X12715000Y760000D02*
D03*
X10885000Y2740000D02*
D03*
X6310000Y2435000D02*
D03*
X8290000Y4265000D02*
D03*
D57*
X10086500Y5813300D02*
D03*
X15186501Y3813300D02*
D03*
X14350000Y750000D02*
D03*
X9250000Y2750000D02*
D03*
X6300000Y800000D02*
D03*
X8300000Y5900000D02*
D03*
D58*
X17500000Y14500000D02*
D03*
X500000D02*
D03*
Y500000D02*
D03*
X17500000D02*
D03*
D59*
X3500000D02*
D03*
X9175000Y5500000D02*
D03*
Y500000D02*
D03*
X3500000Y5500000D02*
D03*
X16500000Y500000D02*
D03*
D60*
X17000000Y5800000D02*
D03*
Y1900000D02*
D03*
Y3200000D02*
D03*
Y4500000D02*
D03*
D61*
X15230000Y5800000D02*
D03*
X13710001D02*
D03*
X15230000Y1900000D02*
D03*
X13710001D02*
D03*
Y3200000D02*
D03*
X15230000D02*
D03*
Y4500000D02*
D03*
X13710001D02*
D03*
D62*
X6960000Y10540000D02*
D03*
X13960001D02*
D03*
D63*
X7800000Y13800000D02*
D03*
X6120000D02*
D03*
X7360000Y10030000D02*
D03*
X6560000D02*
D03*
X13560001D02*
D03*
X14360001D02*
D03*
X13120000Y13800000D02*
D03*
X14800000D02*
D03*
D64*
X6960000Y13972000D02*
D03*
X13960001D02*
D03*
D65*
X8295000Y11940000D02*
D03*
X5625000D02*
D03*
X12625000D02*
D03*
X15295000D02*
D03*
D67*
X1900000Y2400000D02*
D03*
Y4100000D02*
D03*
Y6000000D02*
D03*
X2800000Y7850000D02*
D03*
X4800000D02*
D03*
X13150000Y7900000D02*
D03*
X15150000D02*
D03*
D68*
X3054400Y2184400D02*
D03*
X3454400D02*
D03*
X3054400Y1684400D02*
D03*
X3454400D02*
D03*
X5952000Y7250000D02*
D03*
X7730000Y7758000D02*
D03*
X10270000D02*
D03*
X12048000Y7250000D02*
D03*
D69*
X8723000Y8550000D02*
D03*
X16881000Y7135000D02*
D03*
X400000Y11300000D02*
D03*
Y11600000D02*
D03*
Y11900000D02*
D03*
X700000Y11300000D02*
D03*
Y11600000D02*
D03*
D70*
X8977000Y8550000D02*
D03*
D71*
X2654000Y2400000D02*
D03*
X2400000D02*
D03*
X1384000D02*
D03*
X1130000D02*
D03*
X2654000Y4100000D02*
D03*
X2400000D02*
D03*
X1384000D02*
D03*
X1130000D02*
D03*
D72*
X2296000Y9730000D02*
D03*
X646000Y9330000D02*
D03*
D73*
X2804000Y9730000D02*
D03*
X2296000Y9410000D02*
D03*
Y9190000D02*
D03*
Y8970000D02*
D03*
X2804000D02*
D03*
Y9190000D02*
D03*
Y9410000D02*
D03*
X1154000Y9010000D02*
D03*
Y8790000D02*
D03*
Y8570000D02*
D03*
X646000D02*
D03*
Y8790000D02*
D03*
Y9010000D02*
D03*
X1154000Y9330000D02*
D03*
D74*
X16881000Y6835000D02*
D03*
X700000Y11900000D02*
D03*
D75*
X694000Y10799999D02*
D03*
Y10200000D02*
D03*
X16978999Y7263000D02*
D03*
X302000Y11172000D02*
D03*
X302000Y12322000D02*
D03*
D76*
X600000Y10500000D02*
D03*
X400000Y12450000D02*
D03*
Y12750000D02*
D03*
Y13050000D02*
D03*
Y13350000D02*
D03*
Y13650000D02*
D03*
X700000Y12450000D02*
D03*
Y12750000D02*
D03*
Y13050000D02*
D03*
Y13350000D02*
D03*
D77*
X300000Y10500000D02*
D03*
X700000Y13650000D02*
D03*
D78*
X457200Y5321300D02*
D03*
X2032000Y14122400D02*
D03*
X2159000D02*
D03*
X4419600Y5664200D02*
D03*
X812800Y13208000D02*
D03*
X1420000Y5440899D02*
D03*
X4805000Y5838550D02*
D03*
X4254500Y6076950D02*
D03*
X4900000Y5500000D02*
D03*
X5359400Y5264150D02*
D03*
X4140200Y5238750D02*
D03*
X2717800Y4991100D02*
D03*
X2663400Y5832900D02*
D03*
X3898900Y4686300D02*
D03*
X5308600Y4394200D02*
D03*
X5127300Y4832649D02*
D03*
X4600532Y3987800D02*
D03*
X4400000Y5000000D02*
D03*
X4900000Y4700000D02*
D03*
X2882900Y5003800D02*
D03*
X4610100Y4737100D02*
D03*
X5753100Y4330700D02*
D03*
X4889500Y3365500D02*
D03*
X4152900Y2311400D02*
D03*
X1981360Y12877640D02*
D03*
X1917700Y12977522D02*
D03*
X189134Y13199448D02*
D03*
X1993900Y9372600D02*
D03*
X101600Y6146800D02*
D03*
X1251087Y5493548D02*
D03*
X139700Y6743700D02*
D03*
X723900Y6591300D02*
D03*
X647700Y5600700D02*
D03*
X863600D02*
D03*
X1257300Y6083300D02*
D03*
X850150Y5969750D02*
D03*
X1003300Y5041900D02*
D03*
X1202424Y5599624D02*
D03*
X1917700Y13442290D02*
D03*
Y13321950D02*
D03*
Y13208000D02*
D03*
X2437192Y13115393D02*
D03*
X2159000Y14249400D02*
D03*
X2032000D02*
D03*
X703761Y6892561D02*
D03*
X430600Y7187000D02*
D03*
D79*
X7112000Y1968500D02*
D03*
X6946900Y1689100D02*
D03*
X6781800Y1536700D02*
D03*
X4864100Y7035800D02*
D03*
X3460938Y8549300D02*
D03*
X2927676Y6680200D02*
D03*
X15348935Y6835000D02*
D03*
X15062199Y6832600D02*
D03*
X15214600D02*
D03*
X2768600Y6680200D02*
D03*
X6934200Y1841500D02*
D03*
X3538654Y3741264D02*
D03*
X3467100Y3352800D02*
D03*
X3911600Y3263900D02*
D03*
X3733800Y2540000D02*
D03*
X5450000Y2450000D02*
D03*
Y2300000D02*
D03*
X3800000Y1100000D02*
D03*
X3001401Y10693400D02*
D03*
X2851150D02*
D03*
X2679700D02*
D03*
X3947160Y9404387D02*
D03*
X4165600Y9080500D02*
D03*
X3962400D02*
D03*
X3352800Y9766300D02*
D03*
X300000Y8295534D02*
D03*
X11300000Y8700000D02*
D03*
X1731015Y12500000D02*
D03*
%TF.MD5,397aee7cd51355481fc4cffdb0a6d0a9*%
M02*
