%TF.GenerationSoftware,Altium Limited,Altium Designer,24.2.2 (26)*%
G04 Layer_Color=8421504*
%FSLAX45Y45*%
%MOMM*%
%TF.SameCoordinates,E62911D3-7CC7-41A5-B2DD-A777233C8753*%
%TF.FilePolarity,Positive*%
%TF.FileFunction,Paste,Top*%
%TF.Part,Single*%
G01*
G75*
%TA.AperFunction,SMDPad,CuDef*%
%ADD10R,0.76200X2.15900*%
%ADD11R,0.60960X0.35560*%
%ADD12R,1.80000X1.30560*%
%ADD13R,0.80000X1.00000*%
%ADD14R,3.80000X2.03000*%
%ADD15R,0.65872X0.81213*%
%ADD16R,1.10000X1.60000*%
%ADD17R,1.60000X1.10000*%
%ADD18R,0.90000X0.75000*%
%ADD19R,0.95000X0.95000*%
%ADD20R,4.15000X1.50000*%
G04:AMPARAMS|DCode=21|XSize=1.3mm|YSize=0.76mm|CornerRadius=0.095mm|HoleSize=0mm|Usage=FLASHONLY|Rotation=0.000|XOffset=0mm|YOffset=0mm|HoleType=Round|Shape=RoundedRectangle|*
%AMROUNDEDRECTD21*
21,1,1.30000,0.57000,0,0,0.0*
21,1,1.11000,0.76000,0,0,0.0*
1,1,0.19000,0.55500,-0.28500*
1,1,0.19000,-0.55500,-0.28500*
1,1,0.19000,-0.55500,0.28500*
1,1,0.19000,0.55500,0.28500*
%
%ADD21ROUNDEDRECTD21*%
%ADD22R,0.80000X1.25000*%
%ADD23R,1.35000X1.45000*%
%ADD24R,1.00000X0.80000*%
%ADD25R,2.03000X3.80000*%
%ADD26R,0.80000X0.80000*%
%ADD27R,2.16000X2.26000*%
%ADD28R,1.35574X1.80822*%
%ADD29R,0.95000X0.95000*%
%ADD30R,0.60000X0.80000*%
%ADD31R,2.30000X2.50000*%
%ADD32R,0.80000X0.80000*%
G04:AMPARAMS|DCode=33|XSize=1.3mm|YSize=0.76mm|CornerRadius=0.095mm|HoleSize=0mm|Usage=FLASHONLY|Rotation=270.000|XOffset=0mm|YOffset=0mm|HoleType=Round|Shape=RoundedRectangle|*
%AMROUNDEDRECTD33*
21,1,1.30000,0.57000,0,0,270.0*
21,1,1.11000,0.76000,0,0,270.0*
1,1,0.19000,-0.28500,-0.55500*
1,1,0.19000,-0.28500,0.55500*
1,1,0.19000,0.28500,0.55500*
1,1,0.19000,0.28500,-0.55500*
%
%ADD33ROUNDEDRECTD33*%
%ADD34R,5.46100X5.96900*%
%ADD35R,0.93980X2.20980*%
%ADD36R,5.68960X1.77800*%
%ADD37R,0.35560X1.30810*%
%ADD38R,0.75000X0.90000*%
%ADD39R,2.40005X2.40005*%
%ADD40R,1.80340X2.71780*%
G04:AMPARAMS|DCode=41|XSize=0.55mm|YSize=0.8mm|CornerRadius=0.0495mm|HoleSize=0mm|Usage=FLASHONLY|Rotation=90.000|XOffset=0mm|YOffset=0mm|HoleType=Round|Shape=RoundedRectangle|*
%AMROUNDEDRECTD41*
21,1,0.55000,0.70100,0,0,90.0*
21,1,0.45100,0.80000,0,0,90.0*
1,1,0.09900,0.35050,0.22550*
1,1,0.09900,0.35050,-0.22550*
1,1,0.09900,-0.35050,-0.22550*
1,1,0.09900,-0.35050,0.22550*
%
%ADD41ROUNDEDRECTD41*%
%ADD42R,0.70000X0.85000*%
%ADD43O,1.70000X0.60000*%
%ADD44R,2.50000X2.30000*%
%ADD45R,0.80000X0.60000*%
%ADD46R,1.05000X1.00000*%
%ADD47R,1.15000X1.45000*%
G04:AMPARAMS|DCode=48|XSize=0.55mm|YSize=0.8mm|CornerRadius=0.0495mm|HoleSize=0mm|Usage=FLASHONLY|Rotation=180.000|XOffset=0mm|YOffset=0mm|HoleType=Round|Shape=RoundedRectangle|*
%AMROUNDEDRECTD48*
21,1,0.55000,0.70100,0,0,180.0*
21,1,0.45100,0.80000,0,0,180.0*
1,1,0.09900,-0.22550,0.35050*
1,1,0.09900,0.22550,0.35050*
1,1,0.09900,0.22550,-0.35050*
1,1,0.09900,-0.22550,-0.35050*
%
%ADD48ROUNDEDRECTD48*%
%ADD49R,1.20000X1.50000*%
%ADD50R,1.87960X2.23520*%
D10*
X3811900Y2050000D02*
D03*
X3916040D02*
D03*
D11*
X4267200Y3009900D02*
D03*
X4038600D02*
D03*
D12*
X5280210Y3683580D02*
D03*
Y3403020D02*
D03*
D13*
X4188600Y4686300D02*
D03*
X4038600D02*
D03*
X953700Y5968254D02*
D03*
X1103700D02*
D03*
X954900Y5765800D02*
D03*
X1104900D02*
D03*
X3135700Y3949700D02*
D03*
X2985700D02*
D03*
X280600Y7073900D02*
D03*
X430600D02*
D03*
X217100Y6337300D02*
D03*
X367100D02*
D03*
X217100Y5791200D02*
D03*
X367100D02*
D03*
X4839900Y3987800D02*
D03*
X4989900D02*
D03*
X4992300Y4394200D02*
D03*
X5142300D02*
D03*
X4989900Y4191000D02*
D03*
X4839900D02*
D03*
D14*
X300000Y9550000D02*
D03*
X1650000Y12250000D02*
D03*
X292100Y5511800D02*
D03*
X5156200Y5994400D02*
D03*
X5029200Y5067300D02*
D03*
X4495800Y4191000D02*
D03*
X1054100Y6286500D02*
D03*
X3022600Y3454400D02*
D03*
X2900000Y4400000D02*
D03*
X1500000Y10800000D02*
D03*
Y10200000D02*
D03*
D15*
X359771Y6146800D02*
D03*
X224429D02*
D03*
D16*
X3403600Y2590100D02*
D03*
Y2820100D02*
D03*
D17*
X3441000Y1375713D02*
D03*
X3671000D02*
D03*
D18*
X4394200Y2539900D02*
D03*
Y2374900D02*
D03*
X4533900Y2844800D02*
D03*
Y2679800D02*
D03*
D19*
X4877800Y2362200D02*
D03*
X5002800D02*
D03*
X2587500Y5700000D02*
D03*
X2712500D02*
D03*
X1192800Y5194300D02*
D03*
X1067800D02*
D03*
X4240800Y2540000D02*
D03*
X4115800D02*
D03*
X562500Y6900000D02*
D03*
X437500D02*
D03*
D20*
X5450000Y1510000D02*
D03*
Y2090000D02*
D03*
D21*
X2971800Y3022500D02*
D03*
Y3201500D02*
D03*
X3149600Y3022500D02*
D03*
Y3201500D02*
D03*
X3416300Y3022600D02*
D03*
Y3201600D02*
D03*
X1395000Y10410000D02*
D03*
Y10589000D02*
D03*
D22*
X8441700Y5613400D02*
D03*
X8601700D02*
D03*
X8780000Y4950000D02*
D03*
X8620000D02*
D03*
D23*
X8252500Y5400000D02*
D03*
X8447500D02*
D03*
X7802500D02*
D03*
X7997500D02*
D03*
X6002500D02*
D03*
X6197500D02*
D03*
Y4950000D02*
D03*
X6002500D02*
D03*
X6647500D02*
D03*
X6452500D02*
D03*
X7095000D02*
D03*
X6900000D02*
D03*
X7547500D02*
D03*
X7352500D02*
D03*
X7997500D02*
D03*
X7802500D02*
D03*
X8447500D02*
D03*
X8252500D02*
D03*
X7547500Y5400000D02*
D03*
X7352500D02*
D03*
X7097500Y5400000D02*
D03*
X6902500D02*
D03*
X6647500Y5400000D02*
D03*
X6452500D02*
D03*
X5747500Y4950000D02*
D03*
X5552500D02*
D03*
X5747500Y5400000D02*
D03*
X5552500D02*
D03*
D24*
X4394200Y5386000D02*
D03*
Y5536000D02*
D03*
X1195000Y10725000D02*
D03*
Y10575000D02*
D03*
D25*
X4114800Y4267200D02*
D03*
X1787300Y13805499D02*
D03*
X1187300D02*
D03*
X2087300D02*
D03*
D26*
X839400Y4902200D02*
D03*
X989400D02*
D03*
X2998400Y4127500D02*
D03*
X3148400D02*
D03*
X218300Y5969001D02*
D03*
X368300D02*
D03*
D27*
X1692300Y12855499D02*
D03*
X2182300D02*
D03*
D28*
X1139676Y13355499D02*
D03*
X1434924D02*
D03*
D29*
X1028700Y12038600D02*
D03*
Y11913600D02*
D03*
X4597400Y5398500D02*
D03*
Y5523500D02*
D03*
X4610100Y5004800D02*
D03*
Y5129800D02*
D03*
D30*
X1165000Y11750000D02*
D03*
X1035000D02*
D03*
X1165000Y11600000D02*
D03*
X1035000D02*
D03*
X962200Y5600700D02*
D03*
X1092200D02*
D03*
X2585000Y5550000D02*
D03*
X2715000D02*
D03*
D31*
X3650000Y9430000D02*
D03*
Y9000000D02*
D03*
X3150000Y8985000D02*
D03*
Y9415000D02*
D03*
X300000Y8585000D02*
D03*
Y9015000D02*
D03*
D32*
X1195000Y10275000D02*
D03*
Y10425000D02*
D03*
X2476500Y13714799D02*
D03*
Y13564799D02*
D03*
X2108200Y9371400D02*
D03*
Y9221400D02*
D03*
D33*
X1161000Y4400000D02*
D03*
X1340000D02*
D03*
X2961000Y3745000D02*
D03*
X3140000D02*
D03*
X4254500Y3263900D02*
D03*
X4075500D02*
D03*
D34*
X4372892Y1315438D02*
D03*
D35*
X4144292Y2034258D02*
D03*
X4601492D02*
D03*
D36*
X5050000Y2850000D02*
D03*
D37*
X5342500Y2606805D02*
D03*
X5277500D02*
D03*
X5212500D02*
D03*
X5147500D02*
D03*
X5082500D02*
D03*
X5017500D02*
D03*
X4952500D02*
D03*
X4887500D02*
D03*
X4822500D02*
D03*
X4757500D02*
D03*
X4757500Y3187195D02*
D03*
X4822500D02*
D03*
X4887500D02*
D03*
X5212500D02*
D03*
X5277500D02*
D03*
X5342500D02*
D03*
D38*
X4857700Y3670300D02*
D03*
X4692700D02*
D03*
X4197300Y2743200D02*
D03*
X4032300D02*
D03*
D39*
X5230011Y1200000D02*
D03*
X5669989D02*
D03*
D40*
X12763001Y7110700D02*
D03*
X15557001D02*
D03*
X15175002Y8609300D02*
D03*
X13145001D02*
D03*
X2785000Y8549300D02*
D03*
X4815000D02*
D03*
X5197000Y7050700D02*
D03*
X2403000D02*
D03*
D41*
X627500Y6695000D02*
D03*
Y6505000D02*
D03*
X372500D02*
D03*
Y6600000D02*
D03*
Y6695000D02*
D03*
D42*
X1118600Y5334000D02*
D03*
X1243600D02*
D03*
D43*
X1420000Y6090500D02*
D03*
Y5963500D02*
D03*
Y5836500D02*
D03*
Y5709500D02*
D03*
X2380000Y6090500D02*
D03*
Y5963500D02*
D03*
Y5836500D02*
D03*
Y5709500D02*
D03*
D44*
X12365000Y8700000D02*
D03*
X11935000D02*
D03*
X2765000Y10250000D02*
D03*
X2335000D02*
D03*
D45*
X139700Y6500900D02*
D03*
Y6630900D02*
D03*
X2108200Y8977400D02*
D03*
Y9107400D02*
D03*
X2476500Y13960300D02*
D03*
Y13830299D02*
D03*
D46*
X1116400Y5473700D02*
D03*
X966400D02*
D03*
D47*
X9087500Y4950000D02*
D03*
X8912500D02*
D03*
D48*
X4805000Y5372500D02*
D03*
X4900000D02*
D03*
X4995000D02*
D03*
Y5627500D02*
D03*
X4805000D02*
D03*
Y4576639D02*
D03*
X4900000D02*
D03*
X4995000D02*
D03*
Y4831639D02*
D03*
X4805000D02*
D03*
D49*
X5545000Y5650000D02*
D03*
X5755000D02*
D03*
X5545000Y4650000D02*
D03*
X5755000D02*
D03*
D50*
X2158280Y13355499D02*
D03*
X1716320D02*
D03*
%TF.MD5,0d604bf9544d62cf71067c7f524df7cd*%
M02*
