%TF.GenerationSoftware,Altium Limited,Altium Designer,24.2.2 (26)*%
G04 Layer_Physical_Order=1*
G04 Layer_Color=255*
%FSLAX45Y45*%
%MOMM*%
%TF.SameCoordinates,E62911D3-7CC7-41A5-B2DD-A777233C8753*%
%TF.FilePolarity,Positive*%
%TF.FileFunction,Copper,L1,Top,Signal*%
%TF.Part,Single*%
G01*
G75*
%TA.AperFunction,SMDPad,CuDef*%
%ADD10R,0.76200X2.15900*%
%ADD11R,0.60960X0.35560*%
%ADD12R,1.80000X1.30560*%
%ADD13R,0.80000X1.00000*%
%ADD14R,3.80000X2.03000*%
%ADD15R,0.65872X0.81213*%
%ADD16R,1.10000X1.60000*%
%ADD17R,1.60000X1.10000*%
%ADD18R,0.90000X0.75000*%
%ADD19R,0.95000X0.95000*%
%ADD20R,4.15000X1.50000*%
G04:AMPARAMS|DCode=21|XSize=1.3mm|YSize=0.76mm|CornerRadius=0.095mm|HoleSize=0mm|Usage=FLASHONLY|Rotation=0.000|XOffset=0mm|YOffset=0mm|HoleType=Round|Shape=RoundedRectangle|*
%AMROUNDEDRECTD21*
21,1,1.30000,0.57000,0,0,0.0*
21,1,1.11000,0.76000,0,0,0.0*
1,1,0.19000,0.55500,-0.28500*
1,1,0.19000,-0.55500,-0.28500*
1,1,0.19000,-0.55500,0.28500*
1,1,0.19000,0.55500,0.28500*
%
%ADD21ROUNDEDRECTD21*%
%ADD22R,0.80000X1.25000*%
%ADD23R,1.35000X1.45000*%
%ADD24R,1.00000X0.80000*%
%ADD25R,2.03000X3.80000*%
%ADD26R,0.80000X0.80000*%
%ADD27R,2.16000X2.26000*%
%ADD28R,1.35574X1.80822*%
%ADD29R,0.95000X0.95000*%
%ADD30R,0.60000X0.80000*%
%ADD31R,2.30000X2.50000*%
%ADD32R,0.80000X0.80000*%
G04:AMPARAMS|DCode=33|XSize=1.3mm|YSize=0.76mm|CornerRadius=0.095mm|HoleSize=0mm|Usage=FLASHONLY|Rotation=270.000|XOffset=0mm|YOffset=0mm|HoleType=Round|Shape=RoundedRectangle|*
%AMROUNDEDRECTD33*
21,1,1.30000,0.57000,0,0,270.0*
21,1,1.11000,0.76000,0,0,270.0*
1,1,0.19000,-0.28500,-0.55500*
1,1,0.19000,-0.28500,0.55500*
1,1,0.19000,0.28500,0.55500*
1,1,0.19000,0.28500,-0.55500*
%
%ADD33ROUNDEDRECTD33*%
%ADD34R,5.46100X5.96900*%
%ADD35R,0.93980X2.20980*%
%ADD36R,5.68960X1.77800*%
%ADD37R,0.35560X1.30810*%
%ADD38R,0.75000X0.90000*%
%ADD39R,2.40005X2.40005*%
%ADD40R,1.80340X2.71780*%
G04:AMPARAMS|DCode=41|XSize=0.55mm|YSize=0.8mm|CornerRadius=0.0495mm|HoleSize=0mm|Usage=FLASHONLY|Rotation=90.000|XOffset=0mm|YOffset=0mm|HoleType=Round|Shape=RoundedRectangle|*
%AMROUNDEDRECTD41*
21,1,0.55000,0.70100,0,0,90.0*
21,1,0.45100,0.80000,0,0,90.0*
1,1,0.09900,0.35050,0.22550*
1,1,0.09900,0.35050,-0.22550*
1,1,0.09900,-0.35050,-0.22550*
1,1,0.09900,-0.35050,0.22550*
%
%ADD41ROUNDEDRECTD41*%
%ADD42R,0.70000X0.85000*%
%ADD43O,1.70000X0.60000*%
%ADD44R,2.50000X2.30000*%
%ADD45R,0.80000X0.60000*%
%ADD46R,1.05000X1.00000*%
%ADD47R,1.15000X1.45000*%
G04:AMPARAMS|DCode=48|XSize=0.55mm|YSize=0.8mm|CornerRadius=0.0495mm|HoleSize=0mm|Usage=FLASHONLY|Rotation=180.000|XOffset=0mm|YOffset=0mm|HoleType=Round|Shape=RoundedRectangle|*
%AMROUNDEDRECTD48*
21,1,0.55000,0.70100,0,0,180.0*
21,1,0.45100,0.80000,0,0,180.0*
1,1,0.09900,-0.22550,0.35050*
1,1,0.09900,0.22550,0.35050*
1,1,0.09900,0.22550,-0.35050*
1,1,0.09900,-0.22550,-0.35050*
%
%ADD48ROUNDEDRECTD48*%
%ADD49R,1.20000X1.50000*%
%ADD50R,1.87960X2.23520*%
%TA.AperFunction,FiducialPad,Global*%
%ADD51C,1.00000*%
%TA.AperFunction,Conductor*%
%ADD52C,0.25400*%
%ADD53C,0.50800*%
%ADD54C,1.01600*%
%ADD55C,0.76200*%
%TA.AperFunction,ComponentPad*%
%ADD56C,3.30000*%
%ADD57C,3.00000*%
%ADD58C,7.00000*%
%ADD59C,6.00000*%
%ADD60C,1.40000*%
%ADD61C,2.50000*%
%ADD62O,35.00000X4.00000*%
%ADD63C,2.03200*%
%ADD64C,6.80000*%
%ADD65C,16.50000*%
%ADD66C,1.52400*%
%TA.AperFunction,WasherPad*%
%ADD67C,1.00000*%
%TA.AperFunction,ComponentPad*%
%ADD68C,2.00000*%
%ADD69C,1.57000*%
%ADD70R,1.57000X1.57000*%
%ADD71C,1.80000*%
%ADD72R,1.25000X1.25000*%
%ADD73C,1.25000*%
%ADD74R,1.57000X1.57000*%
%ADD75C,1.02000*%
%ADD76C,1.52000*%
%ADD77R,1.52000X1.52000*%
%TA.AperFunction,ViaPad*%
%ADD78C,0.63500*%
%ADD79C,1.01600*%
G36*
X2260600Y14262100D02*
Y13233400D01*
X2057400D01*
Y13589000D01*
X1968500D01*
Y14300200D01*
X2222500D01*
X2260600Y14262100D01*
D02*
G37*
D10*
X3811900Y2050000D02*
D03*
X3916040D02*
D03*
D11*
X4267200Y3009900D02*
D03*
X4038600D02*
D03*
D12*
X5280210Y3683580D02*
D03*
Y3403020D02*
D03*
D13*
X4188600Y4686300D02*
D03*
X4038600D02*
D03*
X953700Y5968254D02*
D03*
X1103700D02*
D03*
X954900Y5765800D02*
D03*
X1104900D02*
D03*
X3135700Y3949700D02*
D03*
X2985700D02*
D03*
X280600Y7073900D02*
D03*
X430600D02*
D03*
X217100Y6337300D02*
D03*
X367100D02*
D03*
X217100Y5791200D02*
D03*
X367100D02*
D03*
X4839900Y3987800D02*
D03*
X4989900D02*
D03*
X4992300Y4394200D02*
D03*
X5142300D02*
D03*
X4989900Y4191000D02*
D03*
X4839900D02*
D03*
D14*
X300000Y9550000D02*
D03*
X1650000Y12250000D02*
D03*
X292100Y5511800D02*
D03*
X5156200Y5994400D02*
D03*
X5029200Y5067300D02*
D03*
X4495800Y4191000D02*
D03*
X1054100Y6286500D02*
D03*
X3022600Y3454400D02*
D03*
X2900000Y4400000D02*
D03*
X1500000Y10800000D02*
D03*
Y10200000D02*
D03*
D15*
X359771Y6146800D02*
D03*
X224429D02*
D03*
D16*
X3403600Y2590100D02*
D03*
Y2820100D02*
D03*
D17*
X3441000Y1375713D02*
D03*
X3671000D02*
D03*
D18*
X4394200Y2539900D02*
D03*
Y2374900D02*
D03*
X4533900Y2844800D02*
D03*
Y2679800D02*
D03*
D19*
X4877800Y2362200D02*
D03*
X5002800D02*
D03*
X2587500Y5700000D02*
D03*
X2712500D02*
D03*
X1192800Y5194300D02*
D03*
X1067800D02*
D03*
X4240800Y2540000D02*
D03*
X4115800D02*
D03*
X562500Y6900000D02*
D03*
X437500D02*
D03*
D20*
X5450000Y1510000D02*
D03*
Y2090000D02*
D03*
D21*
X2971800Y3022500D02*
D03*
Y3201500D02*
D03*
X3149600Y3022500D02*
D03*
Y3201500D02*
D03*
X3416300Y3022600D02*
D03*
Y3201600D02*
D03*
X1395000Y10410000D02*
D03*
Y10589000D02*
D03*
D22*
X8441700Y5613400D02*
D03*
X8601700D02*
D03*
X8780000Y4950000D02*
D03*
X8620000D02*
D03*
D23*
X8252500Y5400000D02*
D03*
X8447500D02*
D03*
X7802500D02*
D03*
X7997500D02*
D03*
X6002500D02*
D03*
X6197500D02*
D03*
Y4950000D02*
D03*
X6002500D02*
D03*
X6647500D02*
D03*
X6452500D02*
D03*
X7095000D02*
D03*
X6900000D02*
D03*
X7547500D02*
D03*
X7352500D02*
D03*
X7997500D02*
D03*
X7802500D02*
D03*
X8447500D02*
D03*
X8252500D02*
D03*
X7547500Y5400000D02*
D03*
X7352500D02*
D03*
X7097500Y5400000D02*
D03*
X6902500D02*
D03*
X6647500Y5400000D02*
D03*
X6452500D02*
D03*
X5747500Y4950000D02*
D03*
X5552500D02*
D03*
X5747500Y5400000D02*
D03*
X5552500D02*
D03*
D24*
X4394200Y5386000D02*
D03*
Y5536000D02*
D03*
X1195000Y10725000D02*
D03*
Y10575000D02*
D03*
D25*
X4114800Y4267200D02*
D03*
X1787300Y13805499D02*
D03*
X1187300D02*
D03*
X2087300D02*
D03*
D26*
X839400Y4902200D02*
D03*
X989400D02*
D03*
X2998400Y4127500D02*
D03*
X3148400D02*
D03*
X218300Y5969001D02*
D03*
X368300D02*
D03*
D27*
X1692300Y12855499D02*
D03*
X2182300D02*
D03*
D28*
X1139676Y13355499D02*
D03*
X1434924D02*
D03*
D29*
X1028700Y12038600D02*
D03*
Y11913600D02*
D03*
X4597400Y5398500D02*
D03*
Y5523500D02*
D03*
X4610100Y5004800D02*
D03*
Y5129800D02*
D03*
D30*
X1165000Y11750000D02*
D03*
X1035000D02*
D03*
X1165000Y11600000D02*
D03*
X1035000D02*
D03*
X962200Y5600700D02*
D03*
X1092200D02*
D03*
X2585000Y5550000D02*
D03*
X2715000D02*
D03*
D31*
X3650000Y9430000D02*
D03*
Y9000000D02*
D03*
X3150000Y8985000D02*
D03*
Y9415000D02*
D03*
X300000Y8585000D02*
D03*
Y9015000D02*
D03*
D32*
X1195000Y10275000D02*
D03*
Y10425000D02*
D03*
X2476500Y13714799D02*
D03*
Y13564799D02*
D03*
X2108200Y9371400D02*
D03*
Y9221400D02*
D03*
D33*
X1161000Y4400000D02*
D03*
X1340000D02*
D03*
X2961000Y3745000D02*
D03*
X3140000D02*
D03*
X4254500Y3263900D02*
D03*
X4075500D02*
D03*
D34*
X4372892Y1315438D02*
D03*
D35*
X4144292Y2034258D02*
D03*
X4601492D02*
D03*
D36*
X5050000Y2850000D02*
D03*
D37*
X5342500Y2606805D02*
D03*
X5277500D02*
D03*
X5212500D02*
D03*
X5147500D02*
D03*
X5082500D02*
D03*
X5017500D02*
D03*
X4952500D02*
D03*
X4887500D02*
D03*
X4822500D02*
D03*
X4757500D02*
D03*
X4757500Y3187195D02*
D03*
X4822500D02*
D03*
X4887500D02*
D03*
X5212500D02*
D03*
X5277500D02*
D03*
X5342500D02*
D03*
D38*
X4857700Y3670300D02*
D03*
X4692700D02*
D03*
X4197300Y2743200D02*
D03*
X4032300D02*
D03*
D39*
X5230011Y1200000D02*
D03*
X5669989D02*
D03*
D40*
X12763001Y7110700D02*
D03*
X15557001D02*
D03*
X15175002Y8609300D02*
D03*
X13145001D02*
D03*
X2785000Y8549300D02*
D03*
X4815000D02*
D03*
X5197000Y7050700D02*
D03*
X2403000D02*
D03*
D41*
X627500Y6695000D02*
D03*
Y6505000D02*
D03*
X372500D02*
D03*
Y6600000D02*
D03*
Y6695000D02*
D03*
D42*
X1118600Y5334000D02*
D03*
X1243600D02*
D03*
D43*
X1420000Y6090500D02*
D03*
Y5963500D02*
D03*
Y5836500D02*
D03*
Y5709500D02*
D03*
X2380000Y6090500D02*
D03*
Y5963500D02*
D03*
Y5836500D02*
D03*
Y5709500D02*
D03*
D44*
X12365000Y8700000D02*
D03*
X11935000D02*
D03*
X2765000Y10250000D02*
D03*
X2335000D02*
D03*
D45*
X139700Y6500900D02*
D03*
Y6630900D02*
D03*
X2108200Y8977400D02*
D03*
Y9107400D02*
D03*
X2476500Y13960300D02*
D03*
Y13830299D02*
D03*
D46*
X1116400Y5473700D02*
D03*
X966400D02*
D03*
D47*
X9087500Y4950000D02*
D03*
X8912500D02*
D03*
D48*
X4805000Y5372500D02*
D03*
X4900000D02*
D03*
X4995000D02*
D03*
Y5627500D02*
D03*
X4805000D02*
D03*
Y4576639D02*
D03*
X4900000D02*
D03*
X4995000D02*
D03*
Y4831639D02*
D03*
X4805000D02*
D03*
D49*
X5545000Y5650000D02*
D03*
X5755000D02*
D03*
X5545000Y4650000D02*
D03*
X5755000D02*
D03*
D50*
X2158280Y13355499D02*
D03*
X1716320D02*
D03*
D51*
X500000Y1100000D02*
D03*
X17373599Y12941299D02*
D03*
X17500000Y1100000D02*
D03*
D52*
X292100Y5511800D02*
X368400D01*
X457200Y5321300D02*
Y5423000D01*
X368400Y5511800D02*
X457200Y5423000D01*
X217100Y5586800D02*
X292100Y5511800D01*
X8441700Y5405800D02*
X8447500Y5400000D01*
X8441700Y5405800D02*
Y5613400D01*
X696321Y6900000D02*
X711200Y6885121D01*
X1116400Y5473700D02*
Y5600700D01*
X2159000Y14122400D02*
X2425700D01*
X2476500Y14071600D01*
Y13960300D02*
Y14071600D01*
X4419600Y5653890D02*
Y5664200D01*
X4394200Y5628490D02*
X4419600Y5653890D01*
X4394200Y5536000D02*
Y5628490D01*
X4406900Y5321300D02*
Y5373300D01*
X4394200Y5386000D02*
X4406900Y5373300D01*
Y5321300D02*
X4432300Y5295900D01*
X4785721D01*
X4800600Y5310779D01*
Y5368100D01*
X4805000Y5372500D01*
X4394200Y5536000D02*
X4416900Y5558700D01*
Y5561400D01*
X4593200Y5527700D02*
X4597400Y5523500D01*
X4450600Y5527700D02*
X4593200D01*
X4416900Y5561400D02*
X4450600Y5527700D01*
X4684000Y5433300D02*
X4805000Y5554300D01*
X4632200Y5433300D02*
X4684000D01*
X4597400Y5398500D02*
X4632200Y5433300D01*
X4805000Y5554300D02*
Y5627500D01*
Y5838550D02*
Y6049600D01*
X5342500Y2480700D02*
X5359400Y2463800D01*
X5342500Y2480700D02*
Y2606805D01*
X5359400Y2463800D02*
X5436200D01*
X5450000Y2450000D01*
X5461000Y2461000D01*
X812800Y13208000D02*
X1103695Y12917105D01*
X1116395D02*
X1400000Y12633500D01*
X1103695Y12917105D02*
X1116395D01*
X1227961Y10785121D02*
X1242840Y10800000D01*
X1206570Y10726570D02*
X1227961Y10747961D01*
Y10785121D01*
X1242840Y10800000D02*
X1483800D01*
X700000Y11164800D02*
Y11300000D01*
X232800Y11082900D02*
X618100D01*
X700000Y11164800D01*
Y11300000D02*
X981779Y11581779D01*
X4171949Y6090500D02*
X4184650Y6077799D01*
X4253651D02*
X4254500Y6076950D01*
X2380000Y6090500D02*
X4171949D01*
X4184650Y6077799D02*
X4253651D01*
X4900000Y5372500D02*
Y5500000D01*
X5359400Y5264150D02*
Y5372100D01*
X4140200Y5238750D02*
X4286250Y5384800D01*
X4393000D01*
X5353050Y5378450D02*
Y5441950D01*
Y5378450D02*
X5359400Y5372100D01*
X4393000Y5384800D02*
X4394200Y5386000D01*
X2717800Y4991100D02*
Y5547200D01*
X2715000Y5550000D02*
X2717800Y5547200D01*
X2900000Y4400000D02*
X2908300Y4408300D01*
X2609300Y4400000D02*
X2900000D01*
X2663400Y5832900D02*
X2667000Y5829300D01*
X2659800Y5836500D02*
X2663400Y5832900D01*
X2380000Y5836500D02*
X2659800D01*
X3022600Y5031379D02*
Y5715000D01*
X2774100Y5963500D02*
X3022600Y5715000D01*
X2380000Y5963500D02*
X2774100D01*
X3176489Y4877490D02*
X4007410D01*
X4188600Y4686300D02*
Y4696300D01*
X4007410Y4877490D02*
X4188600Y4696300D01*
X3022600Y5031379D02*
X3176489Y4877490D01*
X2882900Y5003800D02*
Y5638800D01*
Y5003800D02*
X2895600Y4991100D01*
X2821700Y5700000D02*
X2882900Y5638800D01*
X3898900Y4686300D02*
X4038600D01*
X4191000Y4399920D02*
Y4683900D01*
X4188600Y4686300D02*
X4191000Y4683900D01*
Y4399920D02*
X4628281D01*
X4805000Y4576639D01*
X4191000Y4343400D02*
Y4399920D01*
X5142300Y4394200D02*
X5308600D01*
X4832450Y4198450D02*
Y4299750D01*
X4926900Y4394200D01*
X4992300D01*
X4995000Y4396900D01*
Y4576639D01*
X5359400Y5372100D02*
X5524600D01*
X5283200Y5511800D02*
X5353050Y5441950D01*
X5524600Y5372100D02*
X5552500Y5400000D01*
X5123739Y4831639D02*
X5130800Y4838700D01*
X4995000Y4831639D02*
X5123739D01*
X4114800Y4267200D02*
X4191000Y4343400D01*
X4600532Y3987800D02*
X4839900D01*
X4400000Y5000000D02*
X4529800Y5129800D01*
X4610100D01*
X4900000Y4576639D02*
Y4700000D01*
X2712500Y5700000D02*
X2821700D01*
X4610100Y4737100D02*
X4788561D01*
X4610100D02*
Y5004800D01*
X4788561Y4737100D02*
X4805000Y4753539D01*
X4260850Y3014980D02*
X4265930Y3009900D01*
X4254500Y3263900D02*
X4260850Y3257550D01*
X4265930Y3009900D02*
X4267200D01*
X4260850Y3014980D02*
Y3257550D01*
X4857700Y3670300D02*
X4870980Y3683580D01*
X5280210D01*
X4692700Y3547075D02*
Y3670300D01*
Y3547075D02*
X4757500Y3482275D01*
Y3187195D02*
Y3482275D01*
X5277500Y3187195D02*
Y3396020D01*
X5265080Y3403020D02*
X5270500D01*
X5212500Y3350440D02*
X5265080Y3403020D01*
X5212500Y3187195D02*
Y3350440D01*
X5342500Y3187195D02*
Y3350440D01*
X5289920Y3403020D02*
X5342500Y3350440D01*
X5755000Y4332600D02*
Y4650000D01*
X5753100Y4330700D02*
X5755000Y4332600D01*
X4495800Y4191000D02*
X4825000D01*
X4839900D01*
X4267200Y3009900D02*
X4762500D01*
X4822500Y3069900D02*
Y3187195D01*
X4762500Y3009900D02*
X4822500Y3069900D01*
X5017500Y2817500D02*
X5044800Y2844800D01*
X5050000Y2850000D01*
X4533900Y2844800D02*
X5044800D01*
X4391526Y2679800D02*
X4521200D01*
X4328126Y2743200D02*
X4391526Y2679800D01*
X4533900Y2465979D02*
Y2679800D01*
Y2465979D02*
X4548779Y2451100D01*
X4762500D01*
X4197300Y2743200D02*
X4328126D01*
X4762500Y2451100D02*
X4822500Y2511100D01*
Y2606805D01*
X4888500Y3364500D02*
X4889500Y3365500D01*
X4882210Y3358210D02*
X4888500Y3364500D01*
X4822500Y3336600D02*
X4844110Y3358210D01*
X4882210D01*
X4822500Y3187195D02*
Y3336600D01*
X4888500Y3188195D02*
Y3364500D01*
X4887500Y3187195D02*
X4888500Y3188195D01*
X4214300Y2250000D02*
X5044000D01*
X4152900Y2311400D02*
X4214300Y2250000D01*
X4144292Y2034258D02*
Y2185121D01*
X4159171Y2200000D02*
X5057500D01*
X4144292Y2185121D02*
X4159171Y2200000D01*
X5057500D02*
X5212500Y2355000D01*
X3733800Y2540000D02*
X4115800D01*
X4032300Y2743200D02*
X4038600Y2749500D01*
Y2749600D01*
Y3009900D01*
X3403600Y2590100D02*
Y2615100D01*
X3445900Y2657400D02*
X3470900D01*
X3823400Y3009900D02*
X4038600D01*
X3403600Y2615100D02*
X3445900Y2657400D01*
X3470900D02*
X3823400Y3009900D01*
X4240900Y2539900D02*
X4394200D01*
X4240800Y2540000D02*
X4240900Y2539900D01*
X4394200Y2374900D02*
X4610100D01*
X4650740Y2415540D01*
X4786440D01*
X4887500Y2516600D01*
X4901021Y2432921D02*
X4952500Y2484400D01*
X4901021Y2385421D02*
Y2432921D01*
X4877800Y2362200D02*
X4901021Y2385421D01*
X4952500Y2484400D02*
Y2606805D01*
X5017500Y2376900D02*
Y2606805D01*
X5002800Y2362200D02*
X5017500Y2376900D01*
X5044000Y2250000D02*
X5147500Y2353500D01*
Y2606805D01*
X5212500Y2355000D02*
Y2606805D01*
X4887500Y2516600D02*
Y2606805D01*
X5277500Y2327500D02*
Y2606805D01*
X4984258Y2034258D02*
X5277500Y2327500D01*
X4601492Y2034258D02*
X4984258D01*
X5017500Y2606805D02*
Y2817500D01*
X5050000Y2850000D02*
X5082500Y2817500D01*
Y2606805D02*
Y2817500D01*
X2654000Y4100000D02*
X2695835D01*
X2745835Y4150000D01*
X2975900D02*
X2998400Y4127500D01*
X2745835Y4150000D02*
X2975900D01*
X5029200Y5067300D02*
X5435200D01*
X5552500Y4950000D01*
X4805000Y4753539D02*
Y4831639D01*
X4975000Y4002700D02*
Y4176100D01*
Y4002700D02*
X4989900Y3987800D01*
X4975000Y4176100D02*
X4989900Y4191000D01*
X3403600Y2820100D02*
X3416300Y2832800D01*
X2133271Y8850000D02*
X2684000D01*
X1900000Y9083271D02*
X2133271Y8850000D01*
X100000Y13100000D02*
X200000Y13200000D01*
X100000Y10244400D02*
Y13100000D01*
Y10244400D02*
X300000Y10044400D01*
Y9550000D02*
Y10044400D01*
X594940Y10047660D02*
X787400Y9855200D01*
X594940Y10047660D02*
Y10494940D01*
X600000Y10500000D01*
X2684000Y8850000D02*
X2804000Y8970000D01*
X1900000Y9083271D02*
Y11100000D01*
X1650000Y11350000D02*
Y12250000D01*
Y11350000D02*
X1900000Y11100000D01*
X567373Y13396330D02*
X671042Y13500000D01*
X750000D02*
X1472700Y12777300D01*
X671042Y13500000D02*
X750000D01*
X400000Y13050000D02*
X567373Y13217372D01*
Y13396330D01*
X1472700Y12338800D02*
X1561500Y12250000D01*
X1472700Y12338800D02*
Y12777300D01*
X1561500Y12250000D02*
X1650000D01*
X1400000Y11465100D02*
X1790700Y11074400D01*
X1400000Y11465100D02*
Y12633500D01*
X1995100Y9371400D02*
X2108200D01*
X1993900Y9372600D02*
X1995100Y9371400D01*
X1041400Y10045700D02*
X1737721D01*
X1752600Y10060579D01*
X1790700Y9997079D02*
Y11074400D01*
X1775821Y9982200D02*
X1790700Y9997079D01*
X1752600Y10060579D02*
Y10703921D01*
X1104900Y9982200D02*
X1775821D01*
X1483800Y10800000D02*
X1500000D01*
X1581200Y10718800D01*
X1737721D01*
X1752600Y10703921D01*
X217100Y5586800D02*
Y5791200D01*
X377779Y5801879D02*
Y5959521D01*
X367100Y5791200D02*
X377779Y5801879D01*
X368300Y5969001D02*
X377779Y5959521D01*
X224429Y5975131D02*
Y6146800D01*
X218300Y5969001D02*
X224429Y5975131D01*
X101600Y6146800D02*
X224429D01*
X368299Y5969001D02*
X368300Y5969001D01*
X1251087Y5493548D02*
X1259574Y5502035D01*
X1242600Y5485061D02*
X1251087Y5493548D01*
X127000Y6362700D02*
Y6488200D01*
Y6362700D02*
X152400Y6337300D01*
X217100D01*
X139700Y6630900D02*
Y6743700D01*
X127000Y6488200D02*
X139700Y6500900D01*
X376850Y6595650D02*
X719550D01*
X372500Y6600000D02*
X376850Y6595650D01*
X719550D02*
X723900Y6591300D01*
X359771Y6146800D02*
Y6329971D01*
X367100Y6337300D01*
X372500Y6342700D01*
Y6505000D01*
X627500Y5631210D02*
X647700Y5611010D01*
Y5600700D02*
Y5611010D01*
X627500Y5631210D02*
Y6505000D01*
X863600Y5600700D02*
X962200D01*
X814979Y5765800D02*
X954900D01*
X800100Y4941500D02*
Y5750921D01*
X814979Y5765800D01*
X800100Y4941500D02*
X839400Y4902200D01*
X825500Y6502400D02*
Y9829800D01*
X762000Y2999379D02*
Y6438900D01*
X825500Y6502400D01*
X723900Y2806100D02*
X1130000Y2400000D01*
X723900Y2806100D02*
Y6451600D01*
X787400Y6515100D01*
X762000Y2999379D02*
X1361379Y2400000D01*
X1384000D01*
X1260900Y6086900D02*
X1416400D01*
X1420000Y6090500D01*
X1257300Y6083300D02*
X1260900Y6086900D01*
X901700Y9779000D02*
X1104900Y9982200D01*
X901700Y6375300D02*
Y9779000D01*
Y6375300D02*
X990500Y6286500D01*
X1054100D01*
X850900Y5969000D02*
X851646Y5968254D01*
X953700D01*
X989400Y5017690D02*
X1003300Y5031590D01*
X989400Y4902200D02*
Y5017690D01*
X1003300Y5031590D02*
Y5041900D01*
X1067800Y5106400D01*
Y5194300D01*
X1296900Y5836500D02*
X1420000D01*
X1242600Y5335000D02*
X1243600Y5334000D01*
X1259574Y5799174D02*
X1296900Y5836500D01*
X1259574Y5502035D02*
Y5799174D01*
X1242600Y5335000D02*
Y5485061D01*
X944719Y5348879D02*
X959598Y5334000D01*
X944719Y5348879D02*
Y5452019D01*
X959598Y5334000D02*
X1118600D01*
X1104900Y5963500D02*
X1420000D01*
X1104900Y5765800D02*
Y5963500D01*
X1054100Y6286500D02*
X1103700Y6236900D01*
Y5968254D02*
Y6236900D01*
X1116400Y5600700D02*
X1201349D01*
X1092200D02*
X1116400D01*
X962200Y5477900D02*
Y5600700D01*
Y5477900D02*
X966400Y5473700D01*
X944719Y5452019D02*
X966400Y5473700D01*
X1201349Y5600700D02*
X1202424Y5599624D01*
X1192800Y5194300D02*
X1278400D01*
X1420000Y5335900D01*
Y5709500D01*
X825500Y9829800D02*
X1041400Y10045700D01*
X787400Y6515100D02*
Y9855200D01*
X1195000Y10425000D02*
Y10575000D01*
X1395000Y10711200D02*
X1483800Y10800000D01*
X1395000Y10589000D02*
Y10711200D01*
X1092200Y10731500D02*
X1188500D01*
X1195000Y10725000D01*
X429900Y10629900D02*
X990600D01*
X1092200Y10731500D01*
X300000Y10500000D02*
X429900Y10629900D01*
X825000Y10275000D02*
X1195000D01*
X1408801D02*
X1425000D01*
X1195000D02*
X1408801D01*
X1395000Y10288800D02*
X1408801Y10275000D01*
X600000Y10500000D02*
X825000Y10275000D01*
X1425000D02*
X1500000Y10200000D01*
X1395000Y10288800D02*
Y10410000D01*
X711200Y6709879D02*
Y6885121D01*
X696321Y6695000D02*
X711200Y6709879D01*
X627500Y6695000D02*
X696321D01*
X562500Y6900000D02*
X696321D01*
X646000Y8989900D02*
Y9010000D01*
X469900Y8813800D02*
X646000Y8989900D01*
X139700Y8798921D02*
X154579Y8813800D01*
X469900D01*
X139700Y8026600D02*
Y8798921D01*
Y8026600D02*
X280600Y7885700D01*
Y7073900D02*
Y7885700D01*
X280471Y6774529D02*
Y6905500D01*
Y6774529D02*
X360000Y6695000D01*
X280600Y6905629D02*
Y7073900D01*
X280471Y6905500D02*
X280600Y6905629D01*
X360000Y6695000D02*
X372500D01*
X430600Y7073900D02*
Y7187000D01*
X431800Y7188200D01*
X430600Y7073900D02*
X437500Y7067000D01*
Y6900000D02*
Y7067000D01*
X4995000Y5058500D02*
Y5372500D01*
X4961221Y5024721D02*
X4995000Y5058500D01*
X2585000Y5550000D02*
Y5697500D01*
X2587500Y5700000D01*
X2380000Y5709500D02*
X2578000D01*
X2587500Y5700000D01*
X4914900Y6159500D02*
X5638800D01*
X4805000Y5627500D02*
Y5838550D01*
Y6049600D02*
X4914900Y6159500D01*
X5755000Y5650000D02*
Y6043300D01*
X5638800Y6159500D02*
X5755000Y6043300D01*
X4995000Y5905600D02*
X5083800Y5994400D01*
X4995000Y5627500D02*
Y5905600D01*
X5083800Y5994400D02*
X5156200D01*
X2419830Y4210530D02*
X2609300Y4400000D01*
X2400000Y4100000D02*
X2419830Y4119830D01*
Y4210530D01*
X7997500Y5400000D02*
X8252500D01*
X7547500D02*
X7802500D01*
X7352500Y5400000D02*
X7352500Y5400000D01*
X7097500Y5400000D02*
X7352500D01*
X6647500Y5400000D02*
X6902500D01*
X6902500Y5400000D01*
X6197500Y5400000D02*
X6452500D01*
X5747500Y5400000D02*
X6002500D01*
X6002500Y5400000D01*
X5016500Y5511800D02*
X5283200D01*
X4995000Y5533300D02*
Y5627500D01*
Y5533300D02*
X5016500Y5511800D01*
X5545000Y5650000D02*
X5552500Y5642500D01*
Y5400000D02*
Y5642500D01*
X5545000Y4650000D02*
Y4942500D01*
X2961000Y3745000D02*
Y3925000D01*
X2985700Y3949700D01*
X3135700Y4114800D02*
X3148400Y4127500D01*
X3135700Y3949700D02*
Y4114800D01*
X2400000Y4100000D02*
X2550300Y3949700D01*
X2985700D01*
X1358900Y4125100D02*
Y4381100D01*
Y4125100D02*
X1384000Y4100000D01*
X1340000Y4400000D02*
X1358900Y4381100D01*
X1161000Y4159088D02*
Y4400000D01*
X2296000Y10211000D02*
X2335000Y10250000D01*
X2108200Y9107400D02*
Y9221400D01*
X2111900Y8973700D02*
X2292300D01*
X2296000Y8970000D01*
X2108200Y8977400D02*
X2111900Y8973700D01*
X2476500Y13714799D02*
Y13830299D01*
X736600Y11430000D02*
X861192Y11554592D01*
X457200Y11430000D02*
X736600D01*
X861192Y11554592D02*
Y11630792D01*
X212900Y12506500D02*
X314762Y12608362D01*
X212900Y11487100D02*
Y12506500D01*
X314762Y12608362D02*
X558362D01*
X165100Y12738100D02*
X342900Y12915900D01*
X565900D01*
X165100Y11150600D02*
Y12738100D01*
X212900Y11487100D02*
X400000Y11300000D01*
X558362Y12608362D02*
X700000Y12750000D01*
X165100Y11150600D02*
X232800Y11082900D01*
X565900Y12915900D02*
X700000Y13050000D01*
X1165000Y11750000D02*
Y11865200D01*
Y11600000D02*
Y11750000D01*
X1028700Y11913600D02*
X1029700Y11912600D01*
X1117600D01*
X1165000Y11865200D01*
X980400Y11750000D02*
X1035000D01*
X861192Y11630792D02*
X980400Y11750000D01*
X981779Y11581779D02*
X1017700D01*
X1035000Y11599079D02*
Y11600000D01*
X1017700Y11581779D02*
X1035000Y11599079D01*
X425180Y11325180D02*
Y11397980D01*
X400000Y11300000D02*
X425180Y11325180D01*
Y11397980D02*
X457200Y11430000D01*
D53*
X8716000Y5750200D02*
Y5909300D01*
X8601700Y5635900D02*
X8716000Y5750200D01*
X8601700Y5613400D02*
Y5635900D01*
X13656097Y5800000D02*
X13710001D01*
X13594569Y5861528D02*
X13656097Y5800000D01*
X13588588Y5861528D02*
X13594569D01*
X13422157Y6027958D02*
X13588588Y5861528D01*
X8834658Y6027958D02*
X13422157D01*
X8716000Y5909300D02*
X8834658Y6027958D01*
X2437192Y13115393D02*
X2476500Y13154700D01*
X2182300Y12860500D02*
X2437192Y13115393D01*
X1917700Y13442290D02*
Y13474699D01*
Y13321950D02*
Y13442290D01*
Y13208000D02*
Y13321950D01*
Y12977522D02*
Y13208000D01*
Y12941299D02*
Y12977522D01*
X1981360Y12877640D02*
X2003500Y12855499D01*
X1917700Y12941299D02*
X1981360Y12877640D01*
X5450000Y2300000D02*
Y2450000D01*
Y2090000D02*
Y2300000D01*
X5461000Y2461000D02*
Y2768600D01*
X5050000Y2850000D02*
X5379600D01*
X5461000Y2768600D01*
X5747500Y4950000D02*
X6002500D01*
X6197500D02*
X6452500D01*
X6647500D02*
X6900000D01*
X7095000D02*
X7352500D01*
X7547500D02*
X7802500D01*
X7997500D02*
X8252500D01*
X8447500D02*
X8620000D01*
X8780000D02*
X8912500D01*
X6223000Y3860800D02*
X13070799D01*
X5753100Y4330700D02*
X6223000Y3860800D01*
X13070799D02*
X13710001Y4500000D01*
X5905500Y1557642D02*
Y3073400D01*
X5857858Y1510000D02*
X5905500Y1557642D01*
X5349600Y1510000D02*
X5857858D01*
X5575880Y3403020D02*
X5905500Y3073400D01*
X2971850Y3201550D02*
X3416250D01*
X2971800Y3201500D02*
Y3403600D01*
X3022600Y3454400D01*
X3541800Y3745000D02*
X3543300Y3746500D01*
X3140000Y3745000D02*
X3541800D01*
X3416250Y3201550D02*
X3416300Y3201600D01*
X2971800Y3201500D02*
X2971850Y3201550D01*
X3416300Y3201600D02*
Y3302000D01*
X3467100Y3352800D01*
X3911600Y3263900D02*
X4075500D01*
X5280210Y3403020D02*
X5283710Y3399520D01*
X5287210Y3403020D02*
X5575880D01*
X5283710Y3399520D02*
X5287210Y3403020D01*
X5300000Y1293689D02*
Y1460400D01*
X5230011Y1223700D02*
X5300000Y1293689D01*
Y1460400D02*
X5349600Y1510000D01*
X3671000Y1229000D02*
X3800000Y1100000D01*
X3671000Y1229000D02*
Y1375713D01*
X4464630Y1223700D02*
X5206311D01*
X4372892Y1315438D02*
X4464630Y1223700D01*
X3416300Y2832800D02*
Y3022600D01*
X3416250Y3022550D02*
X3416300Y3022600D01*
X3149650Y3022550D02*
X3416250D01*
X3149600Y3022500D02*
X3149650Y3022550D01*
X2971800Y3022500D02*
X3149600D01*
X2971800Y2717800D02*
Y3022500D01*
X2654000Y2400000D02*
X2971800Y2717800D01*
X2869600Y2184400D02*
X3054400D01*
X2654000Y2400000D02*
X2869600Y2184400D01*
X2003500Y12855499D02*
X2182300D01*
X2476500Y13154700D02*
Y13564799D01*
X2182300Y12855499D02*
Y12860500D01*
X1813921Y13578479D02*
X1917700Y13474699D01*
X1813921Y13578479D02*
Y13778879D01*
X1787300Y13805499D02*
X1813921Y13778879D01*
D54*
X15760699Y2781300D02*
Y7150100D01*
X15230000Y2250600D02*
X15760699Y2781300D01*
X15230000Y1900000D02*
Y2250600D01*
X7061200Y1968500D02*
X7112000D01*
X6934200Y1841500D02*
X7061200Y1968500D01*
X6934200Y1701800D02*
Y1841500D01*
X6781800Y1536700D02*
X6934200Y1689100D01*
X6781800Y1270000D02*
Y1536700D01*
X6934200Y1689100D02*
X6946900D01*
X6934200Y1701800D02*
X6946900Y1689100D01*
X6711800Y1200000D02*
X6781800Y1270000D01*
X4864100Y7035800D02*
X5182100D01*
X5197000Y7050700D01*
X6300000Y800000D02*
X7454800D01*
X7899400Y1244600D01*
X13855400D01*
X14350000Y750000D01*
X7587400Y11912600D02*
Y12090820D01*
X2768600Y6680200D02*
X2927676D01*
X2413000D02*
X2768600D01*
X15062199Y6832600D02*
X15214600D01*
X15217000Y6835000D02*
X15348935D01*
X15214600Y6832600D02*
X15217000Y6835000D01*
X14884399Y6832600D02*
X15062199D01*
X14606300Y7110700D02*
X14884399Y6832600D01*
X12763001Y7110700D02*
X14606300D01*
X2403000Y6690200D02*
X2413000Y6680200D01*
X2403000Y6690200D02*
Y7050700D01*
X5669989Y1200000D02*
X6711800D01*
X15760699Y7150100D02*
X16725900Y8115300D01*
Y12636500D01*
X16205200Y13157201D02*
X16725900Y12636500D01*
X13842200Y13157201D02*
X16205200D01*
X12625000Y11940000D02*
X13842200Y13157201D01*
X700000Y13650000D02*
X842200Y13792200D01*
X1152976Y13805499D02*
X1187300D01*
X1139676Y13792200D02*
X1152976Y13805499D01*
X842200Y13792200D02*
X1139676D01*
Y13355499D02*
Y13792200D01*
X1704310Y12867509D02*
Y13343491D01*
X1716320Y13355499D01*
X1692300Y12855499D02*
X1704310Y12867509D01*
X1434924Y13355499D02*
X1716320D01*
D55*
X3001401Y10693400D02*
X3022600D01*
X2851150D02*
X3001401D01*
X2679700D02*
X2851150D01*
X3962400Y9080500D02*
Y9410700D01*
X3460938Y8549300D02*
X3507400D01*
X2785000D02*
X3460938D01*
X14592300Y5270500D02*
Y5651500D01*
X15557001Y6616201D02*
Y7110700D01*
X14592300Y5651500D02*
X15557001Y6616201D01*
X3478088Y1708088D02*
Y1786077D01*
X3482948Y1790937D02*
Y1832948D01*
X3687336Y2037336D02*
X3799235D01*
X3482948Y1832948D02*
X3687336Y2037336D01*
X3478088Y1786077D02*
X3482948Y1790937D01*
X3454400Y1684400D02*
X3478088Y1708088D01*
X3799235Y2037336D02*
X3811900Y2050000D01*
X3454400Y1389113D02*
Y1684400D01*
X3441000Y1375713D02*
X3454400Y1389113D01*
X4144292Y2034258D02*
Y2059658D01*
X3942396Y2068548D02*
X4135402D01*
X4144292Y2059658D01*
X2628900Y10490200D02*
X3005031D01*
X4295231Y9200000D01*
X7550000D01*
X2250000Y10869100D02*
X2628900Y10490200D01*
X3940287Y9404387D02*
X3947160D01*
X2250000Y10869100D02*
Y12250000D01*
X3921274Y9423400D02*
X3940287Y9404387D01*
X3656600Y9423400D02*
X3921274D01*
X3955527Y9410700D02*
X3962400D01*
X3650000Y9430000D02*
X3656600Y9423400D01*
X3352800Y9766300D02*
X3568700D01*
X3650000Y9430000D02*
Y9685000D01*
X3568700Y9766300D02*
X3650000Y9685000D01*
X3022600Y10693400D02*
X4305300Y9410700D01*
X7086600D01*
X4599010Y8647090D02*
X4762930D01*
X4165600Y9080500D02*
X4599010Y8647090D01*
X3962400Y9080500D02*
X4165600D01*
X4762930Y8647090D02*
X4815000Y8595020D01*
X7086600Y9410700D02*
X7360000Y9684100D01*
Y10030000D01*
X300000Y8295534D02*
Y8585000D01*
X2305337Y8979337D02*
X2438837D01*
X2552700Y9093200D02*
Y9495363D01*
X2438837Y8979337D02*
X2552700Y9093200D01*
X2296000Y8970000D02*
X2305337Y8979337D01*
X4815000Y8549300D02*
Y8595020D01*
X3320863Y8985000D02*
X3365500Y9029637D01*
Y9347200D01*
X3448300Y9430000D02*
X3650000D01*
X3150000Y8985000D02*
X3320863D01*
X3365500Y9347200D02*
X3448300Y9430000D01*
X11300000Y8700000D02*
X11935000D01*
X1731015Y12500000D02*
X2000000D01*
X2250000Y12250000D01*
X2597337Y9540000D02*
X3025000D01*
X8200000Y8550000D02*
X8723000D01*
X7550000Y9200000D02*
X8200000Y8550000D01*
X6938700Y8549300D02*
X7730000Y7758000D01*
X4815000Y8549300D02*
X6938700D01*
X300000Y9015000D02*
Y9550000D01*
X2310500Y9715500D02*
X2400300D01*
X2296000Y9190000D02*
X2438400Y9332400D01*
X2400300Y9715500D02*
X2438400Y9677400D01*
Y9332400D02*
Y9677400D01*
X2296000Y9730000D02*
X2310500Y9715500D01*
X9102500Y4935000D02*
X14256799D01*
X9087500Y4950000D02*
X9102500Y4935000D01*
X14256799D02*
X14592300Y5270500D01*
X1130000Y4100000D02*
Y4128088D01*
X1192800Y5194300D02*
X1202300Y5203800D01*
X9769000Y7758000D02*
X10270000D01*
X8977000Y8550000D02*
X9769000Y7758000D01*
X12365000Y8700000D02*
X12417070Y8647930D01*
X13145001D01*
Y9615001D01*
Y8609300D02*
Y8647930D01*
Y9615001D02*
X13560001Y10030000D01*
X14350999Y9766300D02*
Y10021000D01*
X14360001Y10030000D01*
X15176500Y8851900D02*
Y8940800D01*
X14350999Y9766300D02*
X15176500Y8940800D01*
X15175002Y8850401D02*
X15176500Y8851900D01*
X15175002Y8609300D02*
Y8850401D01*
X2785000Y8549300D02*
X2815680Y8579980D01*
X2851337Y8788400D02*
X2901763D01*
X2815680Y8579980D02*
Y8752743D01*
X2851337Y8788400D01*
X2901763D02*
X2946400Y8833037D01*
X2804000Y9190000D02*
X2946400Y9047600D01*
Y8833037D02*
Y9047600D01*
X3150000Y9415000D02*
Y9425000D01*
X2552700Y9495363D02*
X2597337Y9540000D01*
X3063100Y9501900D02*
X3073100D01*
X3025000Y9540000D02*
X3063100Y9501900D01*
X3073100D02*
X3150000Y9425000D01*
X2296000Y9730000D02*
Y10211000D01*
X2765000Y10250000D02*
X2804000Y10211000D01*
Y9730000D02*
Y10211000D01*
X622300Y9306300D02*
X646000Y9330000D01*
X622300Y9232900D02*
Y9306300D01*
X457200Y9067800D02*
X622300Y9232900D01*
X352800Y9067800D02*
X457200D01*
X300000Y9015000D02*
X352800Y9067800D01*
X3651437Y8693337D02*
Y8759263D01*
X3507400Y8549300D02*
X3651437Y8693337D01*
X3650000Y8760700D02*
Y9000000D01*
Y8760700D02*
X3651437Y8759263D01*
X700000Y11900000D02*
X713600Y11913600D01*
X1028700D01*
X400000Y11900000D02*
Y11918900D01*
X519700Y12038600D02*
X1028700D01*
X400000Y11918900D02*
X519700Y12038600D01*
D56*
X11721500Y5803300D02*
D03*
X13551500Y3823300D02*
D03*
X12715000Y760000D02*
D03*
X10885000Y2740000D02*
D03*
X6310000Y2435000D02*
D03*
X8290000Y4265000D02*
D03*
D57*
X10086500Y5813300D02*
D03*
X15186501Y3813300D02*
D03*
X14350000Y750000D02*
D03*
X9250000Y2750000D02*
D03*
X6300000Y800000D02*
D03*
X8300000Y5900000D02*
D03*
D58*
X17500000Y14500000D02*
D03*
X500000D02*
D03*
Y500000D02*
D03*
X17500000D02*
D03*
D59*
X3500000D02*
D03*
X9175000Y5500000D02*
D03*
Y500000D02*
D03*
X3500000Y5500000D02*
D03*
X16500000Y500000D02*
D03*
D60*
X17000000Y5800000D02*
D03*
Y1900000D02*
D03*
Y3200000D02*
D03*
Y4500000D02*
D03*
D61*
X15230000Y5800000D02*
D03*
X13710001D02*
D03*
X15230000Y1900000D02*
D03*
X13710001D02*
D03*
Y3200000D02*
D03*
X15230000D02*
D03*
Y4500000D02*
D03*
X13710001D02*
D03*
D62*
X6960000Y10540000D02*
D03*
X13960001D02*
D03*
D63*
X7800000Y13800000D02*
D03*
X6120000D02*
D03*
X7360000Y10030000D02*
D03*
X6560000D02*
D03*
X13560001D02*
D03*
X14360001D02*
D03*
X13120000Y13800000D02*
D03*
X14800000D02*
D03*
D64*
X6960000Y13972000D02*
D03*
X13960001D02*
D03*
D65*
X8295000Y11940000D02*
D03*
X5625000D02*
D03*
X12625000D02*
D03*
X15295000D02*
D03*
D66*
X694000Y10799999D02*
D03*
Y10200000D02*
D03*
X600000Y10500000D02*
D03*
X300000D02*
D03*
D67*
X1900000Y2400000D02*
D03*
Y4100000D02*
D03*
Y6000000D02*
D03*
X2800000Y7850000D02*
D03*
X4800000D02*
D03*
X13150000Y7900000D02*
D03*
X15150000D02*
D03*
D68*
X3054400Y2184400D02*
D03*
X3454400D02*
D03*
X3054400Y1684400D02*
D03*
X3454400D02*
D03*
X5952000Y7250000D02*
D03*
X7730000Y7758000D02*
D03*
X10270000D02*
D03*
X12048000Y7250000D02*
D03*
D69*
X8723000Y8550000D02*
D03*
X16881000Y7135000D02*
D03*
X400000Y11300000D02*
D03*
Y11600000D02*
D03*
Y11900000D02*
D03*
X700000Y11300000D02*
D03*
Y11600000D02*
D03*
D70*
X8977000Y8550000D02*
D03*
D71*
X2654000Y2400000D02*
D03*
X2400000D02*
D03*
X1384000D02*
D03*
X1130000D02*
D03*
X2654000Y4100000D02*
D03*
X2400000D02*
D03*
X1384000D02*
D03*
X1130000D02*
D03*
D72*
X2296000Y9730000D02*
D03*
X646000Y9330000D02*
D03*
D73*
X2804000Y9730000D02*
D03*
X2296000Y9410000D02*
D03*
Y9190000D02*
D03*
Y8970000D02*
D03*
X2804000D02*
D03*
Y9190000D02*
D03*
Y9410000D02*
D03*
X1154000Y9010000D02*
D03*
Y8790000D02*
D03*
Y8570000D02*
D03*
X646000D02*
D03*
Y8790000D02*
D03*
Y9010000D02*
D03*
X1154000Y9330000D02*
D03*
D74*
X16881000Y6835000D02*
D03*
X700000Y11900000D02*
D03*
D75*
X16978999Y7263000D02*
D03*
X302000Y11172000D02*
D03*
X302000Y12322000D02*
D03*
D76*
X400000Y12450000D02*
D03*
Y12750000D02*
D03*
Y13050000D02*
D03*
Y13350000D02*
D03*
Y13650000D02*
D03*
X700000Y12450000D02*
D03*
Y12750000D02*
D03*
Y13050000D02*
D03*
Y13350000D02*
D03*
D77*
Y13650000D02*
D03*
D78*
X457200Y5321300D02*
D03*
X2032000Y14122400D02*
D03*
X2159000D02*
D03*
X4419600Y5664200D02*
D03*
X812800Y13208000D02*
D03*
X1420000Y5440899D02*
D03*
X4805000Y5838550D02*
D03*
X4254500Y6076950D02*
D03*
X4900000Y5500000D02*
D03*
X5359400Y5264150D02*
D03*
X4140200Y5238750D02*
D03*
X2717800Y4991100D02*
D03*
X2663400Y5832900D02*
D03*
X3898900Y4686300D02*
D03*
X5308600Y4394200D02*
D03*
X5127300Y4832649D02*
D03*
X4600532Y3987800D02*
D03*
X4400000Y5000000D02*
D03*
X4900000Y4700000D02*
D03*
X2882900Y5003800D02*
D03*
X4610100Y4737100D02*
D03*
X5753100Y4330700D02*
D03*
X4889500Y3365500D02*
D03*
X4152900Y2311400D02*
D03*
X1981360Y12877640D02*
D03*
X1917700Y12977522D02*
D03*
X189134Y13199448D02*
D03*
X1993900Y9372600D02*
D03*
X101600Y6146800D02*
D03*
X1251087Y5493548D02*
D03*
X139700Y6743700D02*
D03*
X723900Y6591300D02*
D03*
X647700Y5600700D02*
D03*
X863600D02*
D03*
X1257300Y6083300D02*
D03*
X850150Y5969750D02*
D03*
X1003300Y5041900D02*
D03*
X1202424Y5599624D02*
D03*
X1917700Y13442290D02*
D03*
Y13321950D02*
D03*
Y13208000D02*
D03*
X2437192Y13115393D02*
D03*
X2159000Y14249400D02*
D03*
X2032000D02*
D03*
X703761Y6892561D02*
D03*
X430600Y7187000D02*
D03*
D79*
X7112000Y1968500D02*
D03*
X6946900Y1689100D02*
D03*
X6781800Y1536700D02*
D03*
X4864100Y7035800D02*
D03*
X3460938Y8549300D02*
D03*
X2927676Y6680200D02*
D03*
X15348935Y6835000D02*
D03*
X15062199Y6832600D02*
D03*
X15214600D02*
D03*
X2768600Y6680200D02*
D03*
X6934200Y1841500D02*
D03*
X3538654Y3741264D02*
D03*
X3467100Y3352800D02*
D03*
X3911600Y3263900D02*
D03*
X3733800Y2540000D02*
D03*
X5450000Y2450000D02*
D03*
Y2300000D02*
D03*
X3800000Y1100000D02*
D03*
X3001401Y10693400D02*
D03*
X2851150D02*
D03*
X2679700D02*
D03*
X3947160Y9404387D02*
D03*
X4165600Y9080500D02*
D03*
X3962400D02*
D03*
X3352800Y9766300D02*
D03*
X300000Y8295534D02*
D03*
X11300000Y8700000D02*
D03*
X1731015Y12500000D02*
D03*
%TF.MD5,afbb21a6b7099b65f290d5ccb699da2d*%
M02*
