%TF.GenerationSoftware,Altium Limited,Altium Designer,24.2.2 (26)*%
G04 Layer_Color=0*
%FSLAX45Y45*%
%MOMM*%
%TF.SameCoordinates,E62911D3-7CC7-41A5-B2DD-A777233C8753*%
%TF.FilePolarity,Positive*%
%TF.FileFunction,Plated,1,4,PTH,Drill*%
%TF.Part,Single*%
G01*
G75*
%TA.AperFunction,ComponentDrill*%
%ADD136C,1.40000*%
%ADD139C,1.02000*%
%ADD148C,1.25000*%
%ADD149C,3.20000*%
%ADD150C,4.20000*%
%ADD151C,1.00000*%
%ADD152C,8.50000*%
%ADD153C,1.20000*%
%ADD154C,1.02000*%
%ADD155C,0.75000*%
%ADD156C,1.25000*%
%TA.AperFunction,ViaDrill,NotFilled*%
%ADD157C,0.30480*%
D136*
X15230000Y5800000D02*
D03*
X13710001D02*
D03*
X15230000Y1900000D02*
D03*
X13710001D02*
D03*
Y3200000D02*
D03*
X15230000D02*
D03*
Y4500000D02*
D03*
X13710001D02*
D03*
D139*
X600000Y10500000D02*
D03*
X300000D02*
D03*
X16881000Y6835000D02*
D03*
Y7135000D02*
D03*
X400000Y11300000D02*
D03*
Y11600000D02*
D03*
Y11900000D02*
D03*
X700000Y11300000D02*
D03*
Y11600000D02*
D03*
Y11900000D02*
D03*
X400000Y12450000D02*
D03*
Y12750000D02*
D03*
Y13050000D02*
D03*
Y13350000D02*
D03*
Y13650000D02*
D03*
X700000Y12450000D02*
D03*
Y12750000D02*
D03*
Y13050000D02*
D03*
Y13350000D02*
D03*
Y13650000D02*
D03*
D148*
X10086500Y5813300D02*
D03*
X15186501Y3813300D02*
D03*
X14350000Y750000D02*
D03*
X9250000Y2750000D02*
D03*
D149*
X17500000Y14500000D02*
D03*
X500000D02*
D03*
Y500000D02*
D03*
X17500000D02*
D03*
D150*
X3500000D02*
D03*
X9175000Y5500000D02*
D03*
Y500000D02*
D03*
X3500000Y5500000D02*
D03*
X16500000Y500000D02*
D03*
D151*
X7800000Y13800000D02*
D03*
X6120000D02*
D03*
X7360000Y10030000D02*
D03*
X6560000D02*
D03*
X13560001D02*
D03*
X14360001D02*
D03*
X13120000Y13800000D02*
D03*
X14800000D02*
D03*
X2654000Y2400000D02*
D03*
X2400000D02*
D03*
X1384000D02*
D03*
X1130000D02*
D03*
X2654000Y4100000D02*
D03*
X2400000D02*
D03*
X1384000D02*
D03*
X1130000D02*
D03*
X5952000Y7250000D02*
D03*
X7730000Y7758000D02*
D03*
X10270000D02*
D03*
X12048000Y7250000D02*
D03*
D152*
X8295000Y11940000D02*
D03*
X5625000D02*
D03*
X12625000D02*
D03*
X15295000D02*
D03*
D153*
X3054400Y2184400D02*
D03*
X3454400D02*
D03*
X3054400Y1684400D02*
D03*
X3454400D02*
D03*
D154*
X8723000Y8550000D02*
D03*
X8977000D02*
D03*
D155*
X2296000Y9730000D02*
D03*
X2804000D02*
D03*
X2296000Y9410000D02*
D03*
Y9190000D02*
D03*
Y8970000D02*
D03*
X2804000D02*
D03*
Y9190000D02*
D03*
Y9410000D02*
D03*
X1154000Y9010000D02*
D03*
Y8790000D02*
D03*
Y8570000D02*
D03*
X646000D02*
D03*
Y8790000D02*
D03*
Y9010000D02*
D03*
X1154000Y9330000D02*
D03*
X646000D02*
D03*
D156*
X6300000Y800000D02*
D03*
X8300000Y5900000D02*
D03*
D157*
X457200Y5321300D02*
D03*
X7112000Y1968500D02*
D03*
X6946900Y1689100D02*
D03*
X6781800Y1536700D02*
D03*
X4864100Y7035800D02*
D03*
X2032000Y14122400D02*
D03*
X2159000D02*
D03*
X4419600Y5664200D02*
D03*
X3460938Y8549300D02*
D03*
X2927676Y6680200D02*
D03*
X812800Y13208000D02*
D03*
X1420000Y5440899D02*
D03*
X4805000Y5838550D02*
D03*
X15348935Y6835000D02*
D03*
X15062199Y6832600D02*
D03*
X15214600D02*
D03*
X2768600Y6680200D02*
D03*
X4254500Y6076950D02*
D03*
X4900000Y5500000D02*
D03*
X5359400Y5264150D02*
D03*
X4140200Y5238750D02*
D03*
X6934200Y1841500D02*
D03*
X2717800Y4991100D02*
D03*
X2663400Y5832900D02*
D03*
X3898900Y4686300D02*
D03*
X5308600Y4394200D02*
D03*
X5127300Y4832649D02*
D03*
X4600532Y3987800D02*
D03*
X4400000Y5000000D02*
D03*
X4900000Y4700000D02*
D03*
X2882900Y5003800D02*
D03*
X4610100Y4737100D02*
D03*
X3538654Y3741264D02*
D03*
X3467100Y3352800D02*
D03*
X3911600Y3263900D02*
D03*
X5753100Y4330700D02*
D03*
X4889500Y3365500D02*
D03*
X4152900Y2311400D02*
D03*
X3733800Y2540000D02*
D03*
X5450000Y2450000D02*
D03*
Y2300000D02*
D03*
X3800000Y1100000D02*
D03*
X3001401Y10693400D02*
D03*
X2851150D02*
D03*
X2679700D02*
D03*
X3947160Y9404387D02*
D03*
X4165600Y9080500D02*
D03*
X3962400D02*
D03*
X3352800Y9766300D02*
D03*
X300000Y8295534D02*
D03*
X11300000Y8700000D02*
D03*
X1731015Y12500000D02*
D03*
X1981360Y12877640D02*
D03*
X1917700Y12977522D02*
D03*
X189134Y13199448D02*
D03*
X1993900Y9372600D02*
D03*
X101600Y6146800D02*
D03*
X1251087Y5493548D02*
D03*
X139700Y6743700D02*
D03*
X723900Y6591300D02*
D03*
X647700Y5600700D02*
D03*
X863600D02*
D03*
X1257300Y6083300D02*
D03*
X850150Y5969750D02*
D03*
X1003300Y5041900D02*
D03*
X1202424Y5599624D02*
D03*
X1917700Y13442290D02*
D03*
Y13321950D02*
D03*
Y13208000D02*
D03*
X2437192Y13115393D02*
D03*
X2159000Y14249400D02*
D03*
X2032000D02*
D03*
X703761Y6892561D02*
D03*
X430600Y7187000D02*
D03*
%TF.MD5,b69f8a44f534e13f18df876e74d9df44*%
M02*
